<svg width="64" height="64" viewBox="0 0 64 64" fill="none" xmlns="http://www.w3.org/2000/svg">
<rect width="64" height="64" rx="8" fill="#6F61CF"/>
<path d="M18.8 41V24.2H21.728V41H18.8ZM25.3391 41V24.2H28.2671V41H25.3391ZM37.5661 41.312C36.6381 41.312 35.7461 41.168 34.8901 40.88C34.0421 40.584 33.2981 40.164 32.6581 39.62C32.0181 39.068 31.5581 38.408 31.2781 37.64L34.0261 36.632C34.1381 36.952 34.3661 37.244 34.7101 37.508C35.0541 37.772 35.4741 37.984 35.9701 38.144C36.4661 38.304 36.9981 38.384 37.5661 38.384C38.1501 38.384 38.6941 38.296 39.1981 38.12C39.7101 37.936 40.1221 37.684 40.4341 37.364C40.7461 37.036 40.9021 36.656 40.9021 36.224C40.9021 35.784 40.7381 35.424 40.4101 35.144C40.0821 34.856 39.6621 34.628 39.1501 34.46C38.6381 34.292 38.1101 34.164 37.5661 34.076C36.3741 33.892 35.3061 33.608 34.3621 33.224C33.4181 32.84 32.6701 32.308 32.1181 31.628C31.5741 30.948 31.3021 30.068 31.3021 28.988C31.3021 27.972 31.5941 27.084 32.1781 26.324C32.7621 25.564 33.5301 24.972 34.4821 24.548C35.4341 24.124 36.4621 23.912 37.5661 23.912C38.4861 23.912 39.3741 24.056 40.2301 24.344C41.0861 24.632 41.8341 25.052 42.4741 25.604C43.1221 26.156 43.5861 26.82 43.8661 27.596L41.1061 28.592C40.9941 28.272 40.7661 27.98 40.4221 27.716C40.0781 27.452 39.6581 27.244 39.1621 27.092C38.6661 26.932 38.1341 26.852 37.5661 26.852C36.9981 26.844 36.4581 26.936 35.9461 27.128C35.4421 27.312 35.0301 27.564 34.7101 27.884C34.3901 28.204 34.2301 28.572 34.2301 28.988C34.2301 29.524 34.3781 29.928 34.6741 30.2C34.9781 30.472 35.3821 30.672 35.8861 30.8C36.3901 30.92 36.9501 31.032 37.5661 31.136C38.6861 31.312 39.7221 31.608 40.6741 32.024C41.6261 32.44 42.3901 32.996 42.9661 33.692C43.5421 34.38 43.8301 35.224 43.8301 36.224C43.8301 37.24 43.5421 38.132 42.9661 38.9C42.3901 39.66 41.6261 40.252 40.6741 40.676C39.7221 41.1 38.6861 41.312 37.5661 41.312Z" fill="white"/>
</svg>
