<svg width="523" height="267" viewBox="0 0 523 267" fill="none" xmlns="http://www.w3.org/2000/svg">
<g clip-path="url(#clip0_1347_2779)">
<path d="M447.962 208.661H363.636V179.779L450.584 62.9387H496.561V171.89H522.573V208.634H496.561V246.449H447.962V208.661ZM455.054 171.89V119.393L416.437 171.89H455.054Z" fill="#6F61CF"/>
<mask id="mask0_1347_2779" style="mask-type:alpha" maskUnits="userSpaceOnUse" x="362" y="62" width="161" height="186">
<path d="M447.68 209.632H362.553V180.475L450.327 62.525H496.74V172.511H523V209.605H496.74V247.778H447.68V209.632ZM454.839 172.511V119.516L415.855 172.511H454.839Z" fill="#6F61CF"/>
</mask>
<g mask="url(#mask0_1347_2779)">
<ellipse cx="434.936" cy="85.5016" rx="67.7361" ry="67.6887" fill="#8375E3"/>
</g>
<path d="M85.127 209.631H0V180.475L87.7745 62.525H134.188V172.511H160.447V209.604H134.188V247.778H85.127V209.631ZM92.2862 172.511V119.516L53.3023 172.511H92.2862Z" fill="#6F61CF"/>
<path opacity="0.12" d="M435.333 258.766C435.333 269.187 398.511 268.215 329.674 264.111C232.85 258.361 185.14 252.125 185.14 241.704C185.14 231.283 229.878 238.302 299.201 238.302C368.523 238.302 435.333 248.318 435.333 258.766Z" fill="#656371"/>
<path d="M256.785 239.544C256.785 239.544 326.378 212.655 324.325 167.678C322.272 122.701 344.019 53.589 398.321 71.083C452.623 88.577 398.321 182.284 398.321 182.284C398.321 182.284 419.34 119.381 408.83 95.2453C398.321 71.11 352.583 79.4251 350.098 120.568C347.612 161.712 349.936 213.276 315.058 231.931C280.181 250.559 256.785 239.544 256.785 239.544Z" fill="#F96E8B"/>
<mask id="mask1_1347_2779" style="mask-type:luminance" maskUnits="userSpaceOnUse" x="256" y="68" width="167" height="175">
<path d="M256.785 239.544C256.785 239.544 326.378 212.655 324.325 167.678C322.272 122.701 344.019 53.589 398.321 71.083C452.623 88.577 398.321 182.284 398.321 182.284C398.321 182.284 419.34 119.381 408.83 95.2453C398.321 71.11 352.583 79.4251 350.098 120.568C347.612 161.712 349.936 213.276 315.058 231.931C280.181 250.559 256.785 239.544 256.785 239.544Z" fill="white"/>
</mask>
<g mask="url(#mask1_1347_2779)">
<path d="M400.05 155.962C399.402 155.962 398.727 155.962 398.078 155.935L398.132 154.693C405.21 154.99 412.424 153.667 418.934 150.913L419.421 152.074C413.342 154.612 406.669 155.962 400.05 155.962Z" fill="#FF95A5"/>
</g>
<mask id="mask2_1347_2779" style="mask-type:luminance" maskUnits="userSpaceOnUse" x="256" y="68" width="167" height="175">
<path d="M256.785 239.544C256.785 239.544 326.378 212.655 324.325 167.678C322.272 122.701 344.019 53.589 398.321 71.083C452.623 88.577 398.321 182.284 398.321 182.284C398.321 182.284 419.34 119.381 408.83 95.2453C398.321 71.11 352.583 79.4251 350.098 120.568C347.612 161.712 349.936 213.276 315.058 231.931C280.181 250.559 256.785 239.544 256.785 239.544Z" fill="white"/>
</mask>
<g mask="url(#mask2_1347_2779)">
<path d="M405.211 137.793L404.94 136.578C412.343 134.958 419.745 132.933 426.958 130.557L427.337 131.745C420.096 134.121 412.667 136.173 405.211 137.793Z" fill="#FF95A5"/>
</g>
<mask id="mask3_1347_2779" style="mask-type:luminance" maskUnits="userSpaceOnUse" x="256" y="68" width="167" height="175">
<path d="M256.785 239.544C256.785 239.544 326.378 212.655 324.325 167.678C322.272 122.701 344.019 53.589 398.321 71.083C452.623 88.577 398.321 182.284 398.321 182.284C398.321 182.284 419.34 119.381 408.83 95.2453C398.321 71.11 352.583 79.4251 350.098 120.568C347.612 161.712 349.936 213.276 315.058 231.931C280.181 250.559 256.785 239.544 256.785 239.544Z" fill="white"/>
</mask>
<g mask="url(#mask3_1347_2779)">
<path d="M406.615 114.71L406.453 113.468C413.828 112.442 420.177 107.205 425.283 102.966L426.067 103.938C420.853 108.258 414.342 113.63 406.615 114.71Z" fill="#FF95A5"/>
</g>
<mask id="mask4_1347_2779" style="mask-type:luminance" maskUnits="userSpaceOnUse" x="256" y="68" width="167" height="175">
<path d="M256.785 239.544C256.785 239.544 326.378 212.655 324.325 167.678C322.272 122.701 344.019 53.589 398.321 71.083C452.623 88.577 398.321 182.284 398.321 182.284C398.321 182.284 419.34 119.381 408.83 95.2453C398.321 71.11 352.583 79.4251 350.098 120.568C347.612 161.712 349.936 213.276 315.058 231.931C280.181 250.559 256.785 239.544 256.785 239.544Z" fill="white"/>
</mask>
<g mask="url(#mask4_1347_2779)">
<path d="M395.025 90.1699L394.593 89.009C396.619 88.2531 398.645 87.4162 400.617 86.5253C405.156 84.4735 410.181 81.7738 413.153 77.2383C413.126 77.2113 413.126 77.1843 413.126 77.1573C413.018 76.8064 413.234 76.4554 413.477 76.2934C413.774 76.1315 414.125 76.1585 414.368 76.4014C414.476 76.5094 414.828 76.9414 414.395 77.6163C411.262 82.6377 405.642 85.6344 401.131 87.6862C399.131 88.5501 397.078 89.414 395.025 90.1699ZM413.801 77.4003C413.909 77.4003 414.017 77.4003 414.125 77.3193C414.341 77.1843 414.368 76.9414 414.314 76.7524C414.233 76.5094 413.99 76.3204 413.747 76.3474L413.801 77.4003Z" fill="#FF95A5"/>
</g>
<mask id="mask5_1347_2779" style="mask-type:luminance" maskUnits="userSpaceOnUse" x="256" y="68" width="167" height="175">
<path d="M256.785 239.544C256.785 239.544 326.378 212.655 324.325 167.678C322.272 122.701 344.019 53.589 398.321 71.083C452.623 88.577 398.321 182.284 398.321 182.284C398.321 182.284 419.34 119.381 408.83 95.2453C398.321 71.11 352.583 79.4251 350.098 120.568C347.612 161.712 349.936 213.276 315.058 231.931C280.181 250.559 256.785 239.544 256.785 239.544Z" fill="white"/>
</mask>
<g mask="url(#mask5_1347_2779)">
<path d="M373.953 87.9831L372.818 87.4432C376.655 79.4791 382.409 72.4599 389.487 67.1685L390.244 68.1673C383.328 73.3508 377.708 80.208 373.953 87.9831Z" fill="#FF95A5"/>
</g>
<mask id="mask6_1347_2779" style="mask-type:luminance" maskUnits="userSpaceOnUse" x="256" y="68" width="167" height="175">
<path d="M256.785 239.544C256.785 239.544 326.378 212.655 324.325 167.678C322.272 122.701 344.019 53.589 398.321 71.083C452.623 88.577 398.321 182.284 398.321 182.284C398.321 182.284 419.34 119.381 408.83 95.2453C398.321 71.11 352.583 79.4251 350.098 120.568C347.612 161.712 349.936 213.276 315.058 231.931C280.181 250.559 256.785 239.544 256.785 239.544Z" fill="white"/>
</mask>
<g mask="url(#mask6_1347_2779)">
<path d="M357.338 99.7808C356.203 90.5208 356.717 81.2069 358.878 72.1089L360.094 72.4059C357.959 81.3419 357.473 90.4938 358.581 99.6188L357.338 99.7808Z" fill="#FF95A5"/>
</g>
<mask id="mask7_1347_2779" style="mask-type:luminance" maskUnits="userSpaceOnUse" x="256" y="68" width="167" height="175">
<path d="M256.785 239.544C256.785 239.544 326.378 212.655 324.325 167.678C322.272 122.701 344.019 53.589 398.321 71.083C452.623 88.577 398.321 182.284 398.321 182.284C398.321 182.284 419.34 119.381 408.83 95.2453C398.321 71.11 352.583 79.4251 350.098 120.568C347.612 161.712 349.936 213.276 315.058 231.931C280.181 250.559 256.785 239.544 256.785 239.544Z" fill="white"/>
</mask>
<g mask="url(#mask7_1347_2779)">
<path d="M353.151 126.022C342.939 117.086 337.293 104.046 332.295 92.5456L333.43 92.0597C338.373 103.452 343.966 116.357 353.962 125.104L353.151 126.022Z" fill="#FF95A5"/>
</g>
<mask id="mask8_1347_2779" style="mask-type:luminance" maskUnits="userSpaceOnUse" x="256" y="68" width="167" height="175">
<path d="M256.785 239.544C256.785 239.544 326.378 212.655 324.325 167.678C322.272 122.701 344.019 53.589 398.321 71.083C452.623 88.577 398.321 182.284 398.321 182.284C398.321 182.284 419.34 119.381 408.83 95.2453C398.321 71.11 352.583 79.4251 350.098 120.568C347.612 161.712 349.936 213.276 315.058 231.931C280.181 250.559 256.785 239.544 256.785 239.544Z" fill="white"/>
</mask>
<g mask="url(#mask8_1347_2779)">
<path d="M352.341 157.446C339.427 147.053 328.567 133.77 320.948 119.03L322.056 118.463C329.62 133.041 340.346 146.162 353.124 156.474L352.341 157.446Z" fill="#FF95A5"/>
</g>
<mask id="mask9_1347_2779" style="mask-type:luminance" maskUnits="userSpaceOnUse" x="256" y="68" width="167" height="175">
<path d="M256.785 239.544C256.785 239.544 326.378 212.655 324.325 167.678C322.272 122.701 344.019 53.589 398.321 71.083C452.623 88.577 398.321 182.284 398.321 182.284C398.321 182.284 419.34 119.381 408.83 95.2453C398.321 71.11 352.583 79.4251 350.098 120.568C347.612 161.712 349.936 213.276 315.058 231.931C280.181 250.559 256.785 239.544 256.785 239.544Z" fill="white"/>
</mask>
<g mask="url(#mask9_1347_2779)">
<path d="M350.26 175.939C345.181 173.537 340.454 170.027 336.59 165.788C332.727 161.523 329.674 156.501 327.783 151.21L328.945 150.778C330.782 155.907 333.754 160.794 337.509 164.924C341.264 169.055 345.857 172.484 350.801 174.805L350.26 175.939Z" fill="#FF95A5"/>
</g>
<path d="M336.104 203.53C333.564 241.164 292.419 249.452 261.27 247.346C230.12 245.267 187.03 233.281 189.543 195.647C192.082 158.013 239.279 108.987 270.428 111.093C301.577 113.171 338.616 165.896 336.104 203.53Z" fill="#70849F"/>
<mask id="mask10_1347_2779" style="mask-type:luminance" maskUnits="userSpaceOnUse" x="171" y="130" width="138" height="148">
<path d="M268.867 131.237C306.271 136.288 311.785 177.871 307.593 208.792C303.428 239.714 288.569 281.881 251.164 276.856C213.76 271.805 167.978 221.46 172.17 190.54C176.335 159.618 231.462 126.212 268.867 131.237Z" fill="white"/>
</mask>
<g mask="url(#mask10_1347_2779)">
<path d="M287.901 204.931C289.723 177.824 280.424 155.127 267.131 154.235C253.837 153.343 241.583 174.595 239.76 201.702C237.938 228.809 247.236 251.506 260.53 252.398C273.824 253.289 286.078 232.038 287.901 204.931Z" fill="#B0C2D6"/>
</g>
<path d="M295.905 100.888C295.905 100.942 295.905 100.996 295.905 101.05C295.905 107.043 291.042 111.902 285.044 111.902C281.046 111.902 277.561 109.743 275.67 106.53C273.671 108.933 270.672 110.445 267.322 110.445C267.322 114.17 264.323 117.167 260.595 117.167C256.867 117.167 253.868 114.17 253.868 110.445C253.868 110.175 253.895 109.878 253.922 109.608C252.625 110.148 251.221 110.445 249.735 110.445C245.736 110.445 242.251 108.285 240.387 105.099C238.469 106.854 235.903 107.907 233.093 107.907C230.256 107.907 227.69 106.827 225.772 105.072C204.267 118.22 189.895 141.896 189.895 168.947C189.895 210.252 223.421 243.756 264.755 243.756C306.09 243.756 339.616 210.252 339.616 168.947C339.616 138.737 321.705 112.712 295.905 100.888ZM264.755 203.341C245.736 203.341 230.337 187.926 230.337 168.947C230.337 149.968 245.736 134.526 264.755 134.526C283.775 134.526 299.174 149.941 299.174 168.92C299.174 187.899 283.775 203.341 264.755 203.341Z" fill="#512012"/>
<mask id="mask11_1347_2779" style="mask-type:luminance" maskUnits="userSpaceOnUse" x="189" y="100" width="151" height="144">
<path d="M295.905 100.888C295.905 100.942 295.905 100.996 295.905 101.05C295.905 107.043 291.042 111.902 285.044 111.902C281.046 111.902 277.561 109.743 275.67 106.53C273.671 108.933 270.672 110.445 267.322 110.445C267.322 114.17 264.323 117.167 260.595 117.167C256.867 117.167 253.868 114.17 253.868 110.445C253.868 110.175 253.895 109.878 253.922 109.608C252.625 110.148 251.221 110.445 249.735 110.445C245.736 110.445 242.251 108.285 240.387 105.099C238.469 106.854 235.903 107.907 233.093 107.907C230.256 107.907 227.69 106.827 225.772 105.072C204.267 118.22 189.895 141.896 189.895 168.947C189.895 210.252 223.421 243.756 264.755 243.756C306.09 243.756 339.616 210.252 339.616 168.947C339.616 138.737 321.705 112.712 295.905 100.888ZM264.755 203.341C245.736 203.341 230.337 187.926 230.337 168.947C230.337 149.968 245.736 134.526 264.755 134.526C283.775 134.526 299.174 149.941 299.174 168.92C299.174 187.899 283.775 203.341 264.755 203.341Z" fill="white"/>
</mask>
<g mask="url(#mask11_1347_2779)">
<path d="M256.759 126.508C254.111 128.128 252.598 131.097 250.248 133.149C247.06 135.93 242.71 136.767 238.631 137.954C234.579 139.142 230.283 141.113 228.581 144.974C227.122 148.294 227.96 152.182 227.365 155.772C226.636 160.146 223.826 163.926 222.773 168.245C221.962 171.593 222.259 175.183 223.61 178.342C225.042 181.69 227.554 184.416 229.392 187.548C231.364 190.869 232.579 194.567 234.444 197.942C236.308 201.316 239.036 204.502 242.737 205.609C245.196 206.338 247.843 206.068 250.41 206.068C262.162 206.041 273.806 211.683 285.287 209.307C287.178 208.93 289.043 208.282 290.555 207.121C294.149 204.286 294.797 199.157 297.255 195.269C299.011 192.488 301.686 190.356 303.28 187.494C306.198 182.31 305.09 175.912 304.577 170C304.171 165.491 304.171 160.956 304.55 156.447C305.009 150.94 305.792 144.596 301.929 140.6C298.066 136.605 291.501 137.172 286.557 134.634C283.558 133.095 281.262 130.422 278.317 128.749C275.616 127.21 272.536 126.589 269.483 126.076C266.754 125.617 264.026 124.969 261.243 125.185C259.649 125.293 258.109 125.698 256.759 126.508Z" fill="#C37628"/>
<mask id="mask12_1347_2779" style="mask-type:luminance" maskUnits="userSpaceOnUse" x="222" y="125" width="84" height="85">
<path d="M256.759 126.508C254.111 128.128 252.598 131.097 250.248 133.149C247.06 135.93 242.71 136.767 238.631 137.954C234.579 139.142 230.283 141.113 228.581 144.974C227.122 148.294 227.96 152.182 227.365 155.772C226.636 160.146 223.826 163.926 222.773 168.245C221.962 171.593 222.259 175.183 223.61 178.342C225.042 181.69 227.554 184.416 229.392 187.548C231.364 190.869 232.579 194.567 234.444 197.942C236.308 201.316 239.036 204.502 242.737 205.609C245.196 206.338 247.843 206.068 250.41 206.068C262.162 206.041 273.806 211.683 285.287 209.307C287.178 208.93 289.043 208.282 290.555 207.121C294.149 204.286 294.797 199.157 297.255 195.269C299.011 192.488 301.686 190.356 303.28 187.494C306.198 182.31 305.09 175.912 304.577 170C304.171 165.491 304.171 160.956 304.55 156.447C305.009 150.94 305.792 144.596 301.929 140.6C298.066 136.605 291.501 137.172 286.557 134.634C283.558 133.095 281.262 130.422 278.317 128.749C275.616 127.21 272.536 126.589 269.483 126.076C266.754 125.617 264.026 124.969 261.243 125.185C259.649 125.293 258.109 125.698 256.759 126.508Z" fill="white"/>
</mask>
<g mask="url(#mask12_1347_2779)">
<path d="M257.731 131.826C255.245 132.393 253.003 133.635 250.761 134.85C245.277 137.874 239.738 140.924 235.2 145.244C232.714 147.592 230.472 150.454 229.85 153.829C229.445 156.069 229.742 158.364 229.499 160.605C229.094 164.412 227.122 167.867 226.446 171.647C225.744 175.723 226.636 179.962 228.257 183.768C229.877 187.575 232.201 191.031 234.524 194.459C235.308 195.647 236.145 196.835 237.253 197.726C240.468 200.29 245.141 199.616 249.086 200.83C252.057 201.748 254.597 203.719 257.515 204.718C260.432 205.717 263.593 205.717 266.673 205.69C272.427 205.663 278.29 205.609 283.72 203.692C287.475 202.369 291.068 199.994 292.77 196.403C293.392 195.107 293.743 193.703 294.202 192.326C296.147 186.576 300.146 181.636 301.875 175.831C303.334 170.945 303.09 165.545 301.172 160.821C300.092 158.121 298.471 155.638 297.498 152.911C295.931 148.591 295.877 143.678 293.365 139.817C291.447 136.929 288.313 135.012 284.99 133.932C281.586 132.825 278.02 132.744 274.562 132.042C273.778 131.88 272.887 132.069 272.076 132.069C271.131 132.069 270.212 132.015 269.294 131.934C267.457 131.772 265.619 131.556 263.782 131.421C261.756 131.34 259.73 131.367 257.731 131.826Z" fill="#E5A55B"/>
</g>
</g>
<mask id="mask13_1347_2779" style="mask-type:luminance" maskUnits="userSpaceOnUse" x="189" y="100" width="151" height="144">
<path d="M295.905 100.888C295.905 100.942 295.905 100.996 295.905 101.05C295.905 107.043 291.042 111.902 285.044 111.902C281.046 111.902 277.561 109.743 275.67 106.53C273.671 108.933 270.672 110.445 267.322 110.445C267.322 114.17 264.323 117.167 260.595 117.167C256.867 117.167 253.868 114.17 253.868 110.445C253.868 110.175 253.895 109.878 253.922 109.608C252.625 110.148 251.221 110.445 249.735 110.445C245.736 110.445 242.251 108.285 240.387 105.099C238.469 106.854 235.903 107.907 233.093 107.907C230.256 107.907 227.69 106.827 225.772 105.072C204.267 118.22 189.895 141.896 189.895 168.947C189.895 210.252 223.421 243.756 264.755 243.756C306.09 243.756 339.616 210.252 339.616 168.947C339.616 138.737 321.705 112.712 295.905 100.888ZM264.755 203.341C245.736 203.341 230.337 187.926 230.337 168.947C230.337 149.968 245.736 134.526 264.755 134.526C283.775 134.526 299.174 149.941 299.174 168.92C299.174 187.899 283.775 203.341 264.755 203.341Z" fill="white"/>
</mask>
<g mask="url(#mask13_1347_2779)">
<path d="M231.688 113.36C232.093 118.274 228.068 122.458 223.853 125.077C219.639 127.669 214.803 129.612 211.75 133.5C207.806 138.494 207.752 145.487 208.481 151.804C209.211 158.121 210.48 164.654 208.616 170.729C206.293 178.234 199.323 184.362 199.566 192.218C199.782 198.941 205.239 204.178 210.345 208.552C215.451 212.925 220.989 217.973 221.53 224.696C221.719 226.963 221.26 229.258 220.692 231.472C220.395 232.606 220.071 233.767 219.315 234.685C217.748 236.601 214.803 236.844 212.534 235.872C210.264 234.928 208.535 233.038 206.941 231.148C201.214 224.426 196.243 217.002 192.839 208.822C189.786 201.505 188.084 193.676 187.058 185.793C185.112 170.783 185.707 155.26 190.435 140.843C195.162 126.427 204.186 113.225 216.856 104.937C219.044 103.506 221.935 102.183 224.448 103.614C226.69 104.883 228.824 106.989 230.202 109.149C231.012 110.418 231.553 111.848 231.688 113.36Z" fill="#3B150A"/>
</g>
<mask id="mask14_1347_2779" style="mask-type:luminance" maskUnits="userSpaceOnUse" x="189" y="100" width="151" height="144">
<path d="M295.905 100.888C295.905 100.942 295.905 100.996 295.905 101.05C295.905 107.043 291.042 111.902 285.044 111.902C281.046 111.902 277.561 109.743 275.67 106.53C273.671 108.933 270.672 110.445 267.322 110.445C267.322 114.17 264.323 117.167 260.595 117.167C256.867 117.167 253.868 114.17 253.868 110.445C253.868 110.175 253.895 109.878 253.922 109.608C252.625 110.148 251.221 110.445 249.735 110.445C245.736 110.445 242.251 108.285 240.387 105.099C238.469 106.854 235.903 107.907 233.093 107.907C230.256 107.907 227.69 106.827 225.772 105.072C204.267 118.22 189.895 141.896 189.895 168.947C189.895 210.252 223.421 243.756 264.755 243.756C306.09 243.756 339.616 210.252 339.616 168.947C339.616 138.737 321.705 112.712 295.905 100.888ZM264.755 203.341C245.736 203.341 230.337 187.926 230.337 168.947C230.337 149.968 245.736 134.526 264.755 134.526C283.775 134.526 299.174 149.941 299.174 168.92C299.174 187.899 283.775 203.341 264.755 203.341Z" fill="white"/>
</mask>
<g mask="url(#mask14_1347_2779)">
<path d="M245.871 229.555C252.463 229.825 258.839 231.796 265.35 232.768C271.86 233.74 278.939 233.605 284.477 230.041C290.582 226.127 293.635 218.864 298.957 213.978C303.793 209.523 310.223 207.256 315.842 203.827C321.461 200.398 326.703 194.864 326.459 188.277C326.351 185.469 325.244 182.796 324.703 180.043C323.758 175.102 324.73 169.811 327.405 165.545C329.593 162.09 332.916 158.985 333.186 154.882C333.484 150.13 329.512 146.378 326.27 142.895C321.948 138.278 318.382 132.987 315.761 127.237C314.599 124.699 313.546 121.972 311.52 120.028C307.845 116.492 302.145 116.492 297.039 115.898C291.96 115.304 286.044 112.955 285.206 107.907C284.666 104.586 286.584 101.428 288.421 98.5929C289.934 96.2982 291.69 93.7874 294.365 93.1395C296.067 92.7346 297.85 93.1395 299.552 93.6255C317.112 98.5119 333.781 109.716 340.94 126.454C344.533 134.877 345.56 144.164 346.181 153.289C346.775 162.09 347.018 170.945 345.884 179.665C342.885 202.45 329.89 223.724 311.006 236.79C292.122 249.884 267.619 254.581 245.223 249.425C238.55 247.886 231.796 245.456 226.258 241.353C224.177 239.814 222.583 237.087 224.907 234.982C227.257 232.849 231.256 231.688 234.254 230.851C238.009 229.879 241.954 229.393 245.871 229.555Z" fill="#3B150A"/>
</g>
<path d="M207.347 160.848C207.347 161.847 206.536 162.657 205.537 162.657C204.537 162.657 203.727 161.847 203.727 160.848C203.727 159.849 204.537 159.039 205.537 159.039C206.536 159.039 207.347 159.876 207.347 160.848Z" fill="#C71A6B"/>
<path d="M229.797 128.722C230.634 128.722 231.445 127.993 231.391 127.129C231.364 126.265 230.688 125.536 229.797 125.536C228.959 125.536 228.149 126.265 228.203 127.129C228.23 127.993 228.905 128.722 229.797 128.722Z" fill="#C71A6B"/>
<path d="M220.233 153.127C221.071 153.127 221.881 152.398 221.827 151.534C221.8 150.67 221.125 149.941 220.233 149.941C219.396 149.941 218.585 150.67 218.639 151.534C218.666 152.398 219.342 153.127 220.233 153.127Z" fill="#C71A6B"/>
<path d="M209.319 138.062C210.157 138.062 210.967 137.334 210.913 136.47C210.886 135.606 210.211 134.877 209.319 134.877C208.482 134.877 207.671 135.606 207.725 136.47C207.779 137.307 208.428 138.062 209.319 138.062Z" fill="#C71A6B"/>
<path d="M303.334 130.503C304.171 130.503 304.982 129.774 304.928 128.911C304.901 128.047 304.225 127.318 303.334 127.318C302.496 127.318 301.686 128.047 301.74 128.911C301.767 129.774 302.442 130.503 303.334 130.503Z" fill="#C71A6B"/>
<path d="M302.956 114.413C303.793 114.413 304.604 113.684 304.55 112.82C304.523 111.956 303.847 111.227 302.956 111.227C302.118 111.227 301.308 111.956 301.362 112.82C301.416 113.684 302.064 114.413 302.956 114.413Z" fill="#C71A6B"/>
<path d="M281.722 123.538C282.559 123.538 283.369 122.809 283.315 121.945C283.288 121.081 282.613 120.352 281.722 120.352C280.884 120.352 280.074 121.081 280.128 121.945C280.182 122.809 280.83 123.538 281.722 123.538Z" fill="#C71A6B"/>
<path d="M330.053 183.552C330.89 183.552 331.7 182.823 331.646 181.96C331.619 181.096 330.944 180.367 330.053 180.367C329.215 180.367 328.405 181.096 328.459 181.96C328.486 182.796 329.161 183.552 330.053 183.552Z" fill="#C71A6B"/>
<path d="M329.675 149.158C330.512 149.158 331.323 148.429 331.269 147.565C331.242 146.702 330.566 145.973 329.675 145.973C328.837 145.973 328.027 146.702 328.081 147.565C328.135 148.429 328.783 149.158 329.675 149.158Z" fill="#C71A6B"/>
<path d="M311.007 171.107C311.844 171.107 312.655 170.378 312.601 169.514C312.574 168.65 311.898 167.921 311.007 167.921C310.169 167.921 309.359 168.65 309.413 169.514C309.467 170.378 310.115 171.107 311.007 171.107Z" fill="#C71A6B"/>
<path d="M311.763 218.297C312.601 218.297 313.411 217.569 313.357 216.705C313.33 215.841 312.655 215.112 311.763 215.112C310.926 215.112 310.116 215.841 310.17 216.705C310.197 217.569 310.845 218.297 311.763 218.297Z" fill="#C71A6B"/>
<path d="M312.493 197.456C313.33 197.456 314.141 196.727 314.087 195.863C314.06 194.999 313.384 194.27 312.493 194.27C311.655 194.27 310.845 194.999 310.899 195.863C310.926 196.7 311.574 197.456 312.493 197.456Z" fill="#C71A6B"/>
<path d="M326.406 202.936C327.244 202.936 328.054 202.207 328 201.343C327.973 200.479 327.298 199.751 326.406 199.751C325.569 199.751 324.758 200.479 324.812 201.343C324.839 202.207 325.487 202.936 326.406 202.936Z" fill="#C71A6B"/>
<path d="M276.615 238.788C277.453 238.788 278.263 238.059 278.209 237.195C278.182 236.331 277.507 235.602 276.615 235.602C275.778 235.602 274.967 236.331 275.021 237.195C275.048 238.059 275.724 238.788 276.615 238.788Z" fill="#C71A6B"/>
<path d="M274.049 221.213C274.886 221.213 275.697 220.484 275.643 219.62C275.616 218.756 274.94 218.027 274.049 218.027C273.211 218.027 272.401 218.756 272.455 219.62C272.482 220.484 273.157 221.213 274.049 221.213Z" fill="#C71A6B"/>
<path d="M240.36 233.281C241.198 233.281 242.008 232.552 241.954 231.688C241.927 230.824 241.252 230.095 240.36 230.095C239.523 230.095 238.712 230.824 238.766 231.688C238.82 232.552 239.469 233.281 240.36 233.281Z" fill="#C71A6B"/>
<path d="M218.774 210.603C219.612 210.603 220.422 209.874 220.368 209.01C220.341 208.147 219.666 207.418 218.774 207.418C217.937 207.418 217.126 208.147 217.18 209.01C217.207 209.874 217.883 210.603 218.774 210.603Z" fill="#C71A6B"/>
<path d="M253.544 214.626C254.381 214.626 255.192 213.897 255.138 213.033C255.111 212.169 254.435 211.44 253.544 211.44C252.706 211.44 251.896 212.169 251.95 213.033C251.977 213.897 252.652 214.626 253.544 214.626Z" fill="#C71A6B"/>
<path d="M195.703 190.14C196.54 190.14 197.351 189.411 197.297 188.547C197.27 187.683 196.594 186.954 195.703 186.954C194.865 186.954 194.055 187.683 194.109 188.547C194.136 189.384 194.811 190.14 195.703 190.14Z" fill="#C71A6B"/>
<path d="M218.045 186.468C218.882 186.468 219.693 185.739 219.639 184.875C219.612 184.011 218.936 183.282 218.045 183.282C217.207 183.282 216.397 184.011 216.451 184.875C216.478 185.739 217.126 186.468 218.045 186.468Z" fill="#C71A6B"/>
<path d="M234.146 114.413C234.984 114.413 235.794 113.684 235.74 112.82C235.713 111.956 235.038 111.227 234.146 111.227C233.309 111.227 232.498 111.956 232.552 112.82C232.579 113.684 233.255 114.413 234.146 114.413Z" fill="#C71A6B"/>
<path d="M231.607 223.589C230.904 223.589 230.337 223.022 230.337 222.32V210.279C230.337 209.577 230.904 209.01 231.607 209.01C232.309 209.01 232.876 209.577 232.876 210.279V222.32C232.876 223.022 232.309 223.589 231.607 223.589Z" fill="#88D1E2"/>
<path d="M320.084 169.973C319.733 169.379 319.949 168.596 320.543 168.245L330.972 162.225C331.566 161.874 332.349 162.09 332.701 162.684C333.052 163.278 332.836 164.061 332.241 164.412L321.813 170.432C321.192 170.783 320.435 170.594 320.084 169.973Z" fill="#88D1E2"/>
<path d="M315.924 156.798C315.924 156.096 316.491 155.529 317.194 155.529H329.243C329.945 155.529 330.512 156.096 330.512 156.798C330.512 157.5 329.945 158.067 329.243 158.067H317.167C316.491 158.067 315.924 157.5 315.924 156.798Z" fill="#F7941D"/>
<path d="M323.001 187.764C323.623 188.061 323.92 188.817 323.623 189.438L318.571 200.371C318.273 200.992 317.517 201.289 316.896 200.992C316.274 200.695 315.977 199.94 316.274 199.319L321.326 188.385C321.623 187.764 322.38 187.467 323.001 187.764Z" fill="#F7941D"/>
<path d="M239.037 220.349C238.956 219.647 239.469 219.026 240.171 218.972L252.166 217.758C252.869 217.677 253.49 218.189 253.544 218.891C253.625 219.593 253.112 220.214 252.41 220.268L240.415 221.483C239.712 221.564 239.091 221.051 239.037 220.349Z" fill="#F7941D"/>
<path d="M208.779 166.436C209.481 166.517 209.968 167.138 209.887 167.84L208.455 179.8C208.374 180.502 207.752 180.988 207.05 180.907C206.348 180.826 205.861 180.205 205.942 179.503L207.374 167.543C207.455 166.868 208.077 166.355 208.779 166.436Z" fill="#F7941D"/>
<path d="M250.734 118.193C250.761 118.895 250.221 119.489 249.518 119.516L237.469 120.028C236.767 120.055 236.173 119.516 236.146 118.814C236.118 118.112 236.659 117.518 237.361 117.491L249.41 116.978C250.113 116.951 250.707 117.491 250.734 118.193Z" fill="#F7941D"/>
<path d="M311.682 131.475C311.979 130.854 312.736 130.557 313.357 130.854L324.298 135.903C324.92 136.2 325.217 136.956 324.92 137.577C324.623 138.197 323.866 138.494 323.245 138.197L312.303 133.149C311.655 132.852 311.385 132.123 311.682 131.475Z" fill="#BD99EC"/>
<path d="M304.793 205.798C305.495 205.879 305.981 206.5 305.9 207.202L304.469 219.161C304.388 219.863 303.766 220.349 303.064 220.268C302.361 220.187 301.875 219.566 301.956 218.864L303.388 206.905C303.469 206.23 304.09 205.717 304.793 205.798Z" fill="#BD99EC"/>
<path d="M269.889 226.882C269.727 227.557 269.051 227.989 268.376 227.827L256.624 225.182C255.949 225.02 255.517 224.345 255.679 223.67C255.841 222.995 256.516 222.563 257.192 222.725L268.943 225.371C269.619 225.533 270.051 226.208 269.889 226.882Z" fill="#BD99EC"/>
<path d="M223.583 190.14C223.421 190.815 222.746 191.246 222.07 191.084L210.319 188.439C209.643 188.277 209.211 187.602 209.373 186.927C209.535 186.252 210.21 185.82 210.886 185.982L222.638 188.628C223.313 188.79 223.745 189.465 223.583 190.14Z" fill="#BD99EC"/>
<path d="M226.609 121.972C227.095 122.458 227.095 123.268 226.609 123.754L218.099 132.258C217.613 132.744 216.802 132.744 216.316 132.258C215.83 131.772 215.83 130.962 216.316 130.476L224.826 121.972C225.312 121.459 226.096 121.459 226.609 121.972Z" fill="#BD99EC"/>
<path d="M254.111 127.507C254.597 127.993 254.597 128.802 254.111 129.288L245.601 137.792C245.115 138.278 244.304 138.278 243.818 137.792C243.332 137.307 243.332 136.497 243.818 136.011L252.328 127.507C252.814 127.021 253.625 127.021 254.111 127.507Z" fill="#BD99EC"/>
<path d="M285.531 204.151C285.774 203.503 286.53 203.179 287.179 203.449L298.39 207.85C299.039 208.093 299.363 208.849 299.093 209.496C298.849 210.144 298.093 210.468 297.445 210.198L286.233 205.798C285.585 205.528 285.288 204.799 285.531 204.151Z" fill="#88D1E2"/>
<path d="M198.756 144.893C198.999 144.245 199.755 143.921 200.404 144.191L211.615 148.591C212.264 148.834 212.588 149.59 212.318 150.238C212.075 150.886 211.318 151.21 210.67 150.94L199.458 146.539C198.837 146.27 198.513 145.541 198.756 144.893Z" fill="#88D1E2"/>
<path d="M199.594 182.796C200.296 182.769 200.89 183.309 200.917 184.011L201.431 196.052C201.458 196.754 200.917 197.348 200.215 197.375C199.513 197.402 198.918 196.862 198.891 196.16L198.378 184.119C198.351 183.417 198.891 182.823 199.594 182.796Z" fill="#88D1E2"/>
<path d="M287.341 115.817C287.584 115.169 288.34 114.845 288.989 115.115L300.2 119.516C300.849 119.758 301.173 120.514 300.903 121.162C300.66 121.81 299.903 122.134 299.255 121.864L288.043 117.464C287.395 117.194 287.071 116.465 287.341 115.817Z" fill="#88D1E2"/>
<path d="M326.973 126.4C326.54 125.914 325.892 125.725 325.244 125.887C321.434 126.832 309.223 132.609 309.683 136.794C310.223 141.68 321.434 137.253 321.434 137.253C321.434 137.253 312.789 142.76 317.895 145.784C323.028 148.807 328.432 143.624 328.432 143.624C328.432 143.624 321.245 152.56 328.891 150.454C336.428 148.375 334.51 141.167 334.51 141.167C334.51 141.167 330.782 130.692 326.973 126.4Z" fill="#FF95A5"/>
<mask id="mask15_1347_2779" style="mask-type:luminance" maskUnits="userSpaceOnUse" x="309" y="125" width="26" height="26">
<path d="M326.973 126.4C326.54 125.914 325.892 125.725 325.244 125.887C321.434 126.832 309.223 132.609 309.683 136.794C310.223 141.68 321.434 137.253 321.434 137.253C321.434 137.253 312.789 142.76 317.895 145.784C323.028 148.807 328.432 143.624 328.432 143.624C328.432 143.624 321.245 152.56 328.891 150.454C336.428 148.375 334.51 141.167 334.51 141.167C334.51 141.167 330.782 130.692 326.973 126.4Z" fill="white"/>
</mask>
<g mask="url(#mask15_1347_2779)">
<path d="M316.41 129.774C316.41 129.774 311.304 133.608 311.817 135.741C312.33 137.873 322.218 137.037 322.218 137.037C322.218 137.037 316.221 142.436 317.977 144.488C319.733 146.54 328.459 143.624 328.459 143.624C328.459 143.624 325.244 149.347 327.108 149.59C328.945 149.833 332.727 147.835 334.781 145.19C334.781 145.19 333.511 152.344 327.675 151.858C321.84 151.345 317.977 146.998 317.977 146.998C317.977 146.998 311.547 142.922 309.71 140.06C307.846 137.199 308.575 135.012 308.737 134.742C308.899 134.445 316.41 129.774 316.41 129.774Z" fill="#F96E8B"/>
</g>
<path d="M201.889 126.4C202.322 125.914 202.97 125.725 203.618 125.887C207.428 126.832 219.639 132.609 219.18 136.794C218.639 141.68 207.428 137.253 207.428 137.253C207.428 137.253 216.073 142.76 210.967 145.784C205.834 148.807 200.431 143.624 200.431 143.624C200.431 143.624 207.617 152.56 199.971 150.454C192.434 148.375 194.352 141.167 194.352 141.167C194.352 141.167 198.08 130.692 201.889 126.4Z" fill="#FF95A5"/>
<mask id="mask16_1347_2779" style="mask-type:luminance" maskUnits="userSpaceOnUse" x="194" y="125" width="26" height="26">
<path d="M201.889 126.4C202.322 125.914 202.97 125.725 203.618 125.887C207.428 126.832 219.639 132.609 219.18 136.794C218.639 141.68 207.428 137.253 207.428 137.253C207.428 137.253 216.073 142.76 210.967 145.784C205.834 148.807 200.431 143.624 200.431 143.624C200.431 143.624 207.617 152.56 199.971 150.454C192.434 148.375 194.352 141.167 194.352 141.167C194.352 141.167 198.08 130.692 201.889 126.4Z" fill="white"/>
</mask>
<g mask="url(#mask16_1347_2779)">
<path d="M212.452 129.774C212.452 129.774 217.558 133.608 217.045 135.741C216.532 137.873 206.644 137.037 206.644 137.037C206.644 137.037 212.641 142.436 210.885 144.488C209.129 146.54 200.403 143.624 200.403 143.624C200.403 143.624 203.618 149.347 201.754 149.59C199.917 149.833 196.135 147.835 194.081 145.19C194.081 145.19 195.351 152.344 201.187 151.858C207.022 151.345 210.885 146.998 210.885 146.998C210.885 146.998 217.315 142.922 219.152 140.06C221.016 137.199 220.287 135.012 220.125 134.742C219.963 134.445 212.452 129.774 212.452 129.774Z" fill="#F96E8B"/>
</g>
<path d="M241.846 247.4C241.846 244.323 239.82 241.596 236.848 240.732C224.637 237.114 193.596 229.312 185.113 237.195C174.55 246.995 185.113 247.427 185.113 247.427L241.846 247.4Z" fill="#FF95A5"/>
<path d="M287.665 247.4C287.665 244.323 289.691 241.596 292.663 240.732C304.874 237.114 335.915 229.312 344.398 237.195C354.962 246.995 344.398 247.427 344.398 247.427L287.665 247.4Z" fill="#FF95A5"/>
<path d="M185.14 247.4C185.14 247.4 189.381 237.573 199.917 239.058C210.454 240.543 241.873 247.4 241.873 247.4H185.14Z" fill="#F96E8B"/>
<path d="M344.264 247.4C344.264 247.4 340.022 237.573 329.486 239.058C318.95 240.543 287.53 247.4 287.53 247.4H344.264Z" fill="#F96E8B"/>
<path d="M331.351 59.6833C344.36 46.6839 344.36 25.6078 331.351 12.6085C318.343 -0.3909 297.252 -0.390916 284.243 12.6084C271.235 25.6078 271.235 46.6839 284.243 59.6833C297.252 72.6827 318.343 72.6826 331.351 59.6833Z" fill="#70849F"/>
<path d="M304.118 67.5734C319.471 67.5734 331.917 55.1359 331.917 39.7935C331.917 24.4511 319.471 12.0136 304.118 12.0136C288.765 12.0136 276.318 24.4511 276.318 39.7935C276.318 55.1359 288.765 67.5734 304.118 67.5734Z" fill="#FF95A5"/>
<mask id="mask17_1347_2779" style="mask-type:luminance" maskUnits="userSpaceOnUse" x="290" y="12" width="57" height="57">
<path d="M338.139 60.0406C348.995 49.1919 348.995 31.6029 338.139 20.7542C327.282 9.90564 309.681 9.90564 298.825 20.7543C287.969 31.6029 287.969 49.1919 298.825 60.0406C309.681 70.8892 327.282 70.8892 338.139 60.0406Z" fill="white"/>
</mask>
<g mask="url(#mask17_1347_2779)">
<path opacity="0.14" d="M328.09 38.813C336.963 29.9464 336.963 15.5709 328.09 6.70436C319.217 -2.16219 304.832 -2.1622 295.959 6.70436C287.086 15.5709 287.086 29.9464 295.959 38.813C304.832 47.6795 319.217 47.6795 328.09 38.813Z" fill="white"/>
</g>
<path d="M239.096 59.6904C252.105 46.691 252.105 25.6149 239.096 12.6155C226.088 -0.38382 204.997 -0.383822 191.988 12.6155C178.98 25.6149 178.98 46.691 191.988 59.6904C204.997 72.6897 226.088 72.6897 239.096 59.6904Z" fill="#70849F"/>
<path d="M219.207 67.5734C234.56 67.5734 247.006 55.1359 247.006 39.7935C247.006 24.4511 234.56 12.0136 219.207 12.0136C203.853 12.0136 191.407 24.4511 191.407 39.7935C191.407 55.1359 203.853 67.5734 219.207 67.5734Z" fill="#FF95A5"/>
<mask id="mask18_1347_2779" style="mask-type:luminance" maskUnits="userSpaceOnUse" x="214" y="4" width="57" height="57">
<path d="M269.646 36.7533C272.108 21.6065 261.82 7.33695 246.667 4.88146C231.515 2.42597 217.235 12.7143 214.773 27.8612C212.311 43.008 222.599 57.2776 237.752 59.733C252.905 62.1885 267.184 51.9002 269.646 36.7533Z" fill="white"/>
</mask>
<g mask="url(#mask18_1347_2779)">
<path opacity="0.14" d="M248.573 26.1443C250.57 13.8539 242.22 2.27461 229.924 0.281278C217.627 -1.71205 206.04 6.63537 204.043 18.9258C202.046 31.2162 210.395 42.7954 222.692 44.7887C234.989 46.7821 246.576 38.4347 248.573 26.1443Z" fill="white"/>
</g>
<path d="M261.676 107.772H251.464V122.107C251.464 124.888 254.165 127.129 257.515 127.129H261.676H265.836C269.186 127.129 271.888 124.888 271.888 122.107V107.772H261.676Z" fill="white"/>
<mask id="mask19_1347_2779" style="mask-type:luminance" maskUnits="userSpaceOnUse" x="251" y="107" width="21" height="21">
<path d="M261.676 107.772H251.464V122.107C251.464 124.888 254.165 127.129 257.515 127.129H261.676H265.836C269.186 127.129 271.888 124.888 271.888 122.107V107.772H261.676Z" fill="white"/>
</mask>
<g mask="url(#mask19_1347_2779)">
<path opacity="0.36" d="M260.974 109.014L262.054 126.184C262.081 126.4 262.405 126.4 262.432 126.184L262.514 109.041L260.974 109.014Z" fill="#52667E"/>
</g>
<path d="M291.204 56.7746C289.529 41.9803 276.94 30.4526 261.676 30.4526C246.412 30.4526 233.822 41.9533 232.147 56.7746C220.99 61.3641 213.155 72.3249 213.155 85.1214C213.155 102.049 226.879 115.763 243.818 115.763C250.491 115.763 256.651 113.63 261.703 110.013C266.728 113.63 272.914 115.763 279.587 115.763C296.526 115.763 310.25 102.049 310.25 85.1214C310.196 72.3249 302.335 61.3641 291.204 56.7746Z" fill="#70849F"/>
<mask id="mask20_1347_2779" style="mask-type:luminance" maskUnits="userSpaceOnUse" x="213" y="30" width="98" height="86">
<path d="M291.204 56.7746C289.529 41.9803 276.94 30.4526 261.676 30.4526C246.412 30.4526 233.822 41.9533 232.147 56.7746C220.99 61.3641 213.155 72.3249 213.155 85.1214C213.155 102.049 226.879 115.763 243.818 115.763C250.491 115.763 256.651 113.63 261.703 110.013C266.728 113.63 272.914 115.763 279.587 115.763C296.526 115.763 310.25 102.049 310.25 85.1214C310.196 72.3249 302.335 61.3641 291.204 56.7746Z" fill="white"/>
</mask>
<g mask="url(#mask20_1347_2779)">
<path d="M213.236 87.4972C213.236 87.4972 224.205 123.106 261.676 104.37C261.676 104.37 297.796 125.239 310.196 85.0944C310.196 85.0944 319.625 130.773 262.783 117.437C262.783 117.464 213.777 135.903 213.236 87.4972Z" fill="#52667E"/>
</g>
<path d="M242.441 71.164C245.115 68.5993 248.762 67.0064 252.761 67.0064C253.895 67.0064 254.976 67.1414 256.03 67.3574C257.002 65.4676 257.543 63.2269 257.543 60.8241C257.543 54.0479 253.139 48.5675 247.709 48.5675C242.279 48.5675 237.875 54.0479 237.875 60.8241C237.902 65.1706 239.712 69.0042 242.441 71.164Z" fill="white"/>
<mask id="mask21_1347_2779" style="mask-type:luminance" maskUnits="userSpaceOnUse" x="237" y="48" width="21" height="24">
<path d="M242.441 71.164C245.115 68.5993 248.762 67.0064 252.761 67.0064C253.895 67.0064 254.976 67.1414 256.03 67.3574C257.002 65.4676 257.543 63.2269 257.543 60.8241C257.543 54.0479 253.139 48.5675 247.709 48.5675C242.279 48.5675 237.875 54.0479 237.875 60.8241C237.902 65.1706 239.712 69.0042 242.441 71.164Z" fill="white"/>
</mask>
<g mask="url(#mask21_1347_2779)">
<path d="M249.195 71.9739C252.373 71.9739 254.949 67.8039 254.949 62.6599C254.949 57.5159 252.373 53.3459 249.195 53.3459C246.017 53.3459 243.44 57.5159 243.44 62.6599C243.44 67.8039 246.017 71.9739 249.195 71.9739Z" fill="#272727"/>
</g>
<path d="M280.884 71.164C278.21 68.5993 274.562 67.0064 270.564 67.0064C269.429 67.0064 268.349 67.1414 267.295 67.3574C266.323 65.4676 265.782 63.2269 265.782 60.8241C265.782 54.0479 270.186 48.5675 275.616 48.5675C281.046 48.5675 285.45 54.0479 285.45 60.8241C285.423 65.1706 283.613 69.0042 280.884 71.164Z" fill="white"/>
<mask id="mask22_1347_2779" style="mask-type:luminance" maskUnits="userSpaceOnUse" x="265" y="48" width="21" height="24">
<path d="M280.884 71.164C278.21 68.5993 274.562 67.0064 270.564 67.0064C269.429 67.0064 268.349 67.1414 267.295 67.3574C266.323 65.4676 265.782 63.2269 265.782 60.8241C265.782 54.0479 270.186 48.5675 275.616 48.5675C281.046 48.5675 285.45 54.0479 285.45 60.8241C285.423 65.1706 283.613 69.0042 280.884 71.164Z" fill="white"/>
</mask>
<g mask="url(#mask22_1347_2779)">
<path d="M273.697 71.9739C276.711 71.9739 279.155 67.8643 279.155 62.7949C279.155 57.7255 276.711 53.616 273.697 53.616C270.683 53.616 268.24 57.7255 268.24 62.7949C268.24 67.8643 270.683 71.9739 273.697 71.9739Z" fill="#272727"/>
</g>
<path d="M261.676 109.986C261.514 109.554 261.378 109.149 261.243 108.717C261.108 108.285 261 107.88 260.919 107.448C260.73 106.611 260.568 105.774 260.46 104.937C260.217 103.263 260.136 101.563 260.136 99.8887C260.136 98.2149 260.244 96.5141 260.46 94.8403C260.568 94.0034 260.73 93.1665 260.919 92.3296C261.027 91.8976 261.135 91.4927 261.243 91.0607C261.378 90.6288 261.514 90.2238 261.676 89.7919C261.838 90.2238 261.973 90.6288 262.108 91.0607C262.243 91.4927 262.351 91.8976 262.432 92.3296C262.621 93.1665 262.783 94.0034 262.891 94.8403C263.134 96.5141 263.216 98.2149 263.216 99.8887C263.216 101.563 263.107 103.263 262.891 104.937C262.783 105.774 262.621 106.611 262.432 107.448C262.324 107.88 262.216 108.285 262.108 108.717C261.973 109.149 261.838 109.581 261.676 109.986Z" fill="#52667E"/>
<path d="M250.059 34.3401C250.059 34.3401 258.569 23.0554 260.568 23.5413C262.567 24.0543 259.865 27.9419 259.865 27.9419C259.865 27.9419 274.616 20.0317 275.589 22.2455C276.561 24.4592 269.375 32.5313 269.078 32.5313C268.781 32.5313 250.059 34.3401 250.059 34.3401Z" fill="#70849F"/>
<path d="M261.676 94.4354C267.972 94.4354 273.077 91.0752 273.077 86.9302C273.077 82.7852 267.972 79.425 261.676 79.425C255.38 79.425 250.275 82.7852 250.275 86.9302C250.275 91.0752 255.38 94.4354 261.676 94.4354Z" fill="#F44C51"/>
<mask id="mask23_1347_2779" style="mask-type:luminance" maskUnits="userSpaceOnUse" x="250" y="79" width="24" height="16">
<path d="M261.676 94.4354C267.972 94.4354 273.077 91.0752 273.077 86.9302C273.077 82.7852 267.972 79.425 261.676 79.425C255.38 79.425 250.275 82.7852 250.275 86.9302C250.275 91.0752 255.38 94.4354 261.676 94.4354Z" fill="white"/>
</mask>
<g mask="url(#mask23_1347_2779)">
<path d="M263.297 85.5533C267.027 85.5533 270.051 84.3567 270.051 82.8806C270.051 81.4046 267.027 80.2079 263.297 80.2079C259.567 80.2079 256.543 81.4046 256.543 82.8806C256.543 84.3567 259.567 85.5533 263.297 85.5533Z" fill="#FF95A5"/>
</g>
<path d="M274.697 84.8245C275.589 84.0686 276.615 83.4476 277.642 82.9347L278.02 82.7187L278.425 82.5297L279.236 82.1518C279.506 82.0438 279.776 81.9358 280.046 81.8278C280.317 81.7198 280.587 81.6118 280.857 81.5038C281.424 81.3149 281.965 81.1259 282.532 80.9639L284.234 80.505C284.504 80.424 284.801 80.37 285.098 80.316L285.963 80.127C286.26 80.073 286.53 79.992 286.827 79.938L287.692 79.803C290.015 79.3981 292.339 79.2361 294.689 79.1551C295.851 79.1281 297.039 79.1551 298.201 79.1821C299.363 79.2631 300.524 79.3441 301.686 79.4251C300.524 79.4521 299.363 79.4791 298.201 79.4791L296.445 79.5601C295.878 79.5871 295.283 79.5871 294.716 79.641C294.149 79.695 293.554 79.749 292.987 79.776L292.123 79.83C291.825 79.857 291.555 79.884 291.258 79.938L289.529 80.127C289.394 80.154 289.232 80.154 289.097 80.181L288.664 80.262L287.8 80.397L286.935 80.5319C286.638 80.5859 286.368 80.6399 286.071 80.6939L285.206 80.8559C284.936 80.9099 284.639 80.9639 284.369 81.0449L282.694 81.4498C282.127 81.6118 281.586 81.7738 281.019 81.9358C280.479 82.1248 279.911 82.3137 279.371 82.5027L278.561 82.8267L278.155 82.9887L277.75 83.1777C276.696 83.6636 275.67 84.1765 274.697 84.8245Z" fill="#272727"/>
<path d="M275.562 87.0652C276.615 86.5523 277.75 86.2283 278.884 85.9583L279.317 85.8503L279.749 85.7694L280.613 85.6074C280.911 85.5534 281.208 85.5264 281.478 85.4994C281.775 85.4724 282.072 85.4184 282.342 85.3914C282.937 85.3374 283.504 85.3104 284.099 85.2834L285.855 85.2564C286.152 85.2564 286.449 85.2564 286.746 85.2834L287.638 85.3104C287.935 85.3374 288.232 85.3374 288.529 85.3644L289.394 85.4454C291.744 85.6344 294.04 86.0663 296.337 86.5793C297.471 86.8492 298.606 87.1732 299.741 87.4702C300.848 87.8211 301.956 88.1991 303.064 88.577C301.929 88.3341 300.794 88.0371 299.66 87.7671L297.958 87.4162C297.39 87.3082 296.823 87.1462 296.256 87.0652C295.688 86.9572 295.121 86.8762 294.527 86.7682L293.662 86.6063C293.365 86.5523 293.095 86.5253 292.798 86.4983L291.069 86.2553C290.934 86.2283 290.771 86.2283 290.636 86.2013L290.204 86.1743L289.34 86.0933L288.475 86.0123C288.178 85.9853 287.908 85.9853 287.611 85.9583L286.746 85.9043C286.449 85.9043 286.179 85.8773 285.882 85.8773L284.153 85.8503C283.585 85.8773 282.991 85.9043 282.424 85.9043C281.856 85.9583 281.262 85.9853 280.695 86.0393L279.83 86.1473L279.398 86.2013L278.966 86.2823C277.804 86.4173 276.669 86.6603 275.562 87.0652Z" fill="#272727"/>
<path d="M275.318 89.36C276.48 89.171 277.669 89.198 278.83 89.306L279.263 89.333L279.695 89.387L280.559 89.495C280.857 89.5489 281.127 89.6029 281.424 89.6569C281.721 89.7109 281.991 89.7649 282.288 89.8189C282.856 89.9539 283.423 90.0889 283.99 90.2239L285.665 90.7368C285.963 90.8178 286.233 90.9258 286.503 91.0068L287.34 91.3038C287.611 91.4117 287.881 91.4927 288.178 91.6007L288.988 91.9517C291.177 92.8426 293.23 93.9494 295.256 95.1103C296.256 95.7043 297.228 96.3522 298.228 96.9731C299.173 97.648 300.119 98.323 301.064 99.0249C300.065 98.4309 299.065 97.837 298.066 97.2161L296.553 96.3522C296.04 96.0822 295.553 95.7583 295.04 95.4883C294.527 95.2183 294.013 94.9483 293.5 94.6784L292.717 94.2734C292.446 94.1384 292.203 94.0304 291.933 93.8955L290.366 93.1395C290.231 93.0855 290.096 93.0046 289.961 92.9506L289.556 92.7886L288.745 92.4646L287.935 92.1137C287.665 92.0057 287.394 91.8977 287.124 91.8167L286.314 91.5197C286.044 91.4117 285.774 91.3037 285.503 91.2228L283.855 90.6828C283.288 90.5208 282.748 90.3859 282.18 90.2239C281.613 90.0889 281.046 89.9539 280.478 89.8459L279.614 89.6839L279.182 89.6029L278.749 89.5489C277.642 89.414 276.48 89.306 275.318 89.36Z" fill="#272727"/>
<path d="M249.411 84.8245C248.439 84.1765 247.412 83.6636 246.332 83.2046L245.926 83.0157L245.521 82.8537L244.711 82.5297C244.17 82.3407 243.603 82.1518 243.063 81.9628C242.495 81.8008 241.955 81.6388 241.388 81.4768L239.713 81.0719C239.443 80.9909 239.145 80.9369 238.875 80.8829L238.011 80.7209C237.713 80.6669 237.443 80.6129 237.146 80.5589L236.282 80.4239L235.417 80.289L234.985 80.208C234.85 80.181 234.688 80.154 234.553 80.154L232.824 79.965C232.526 79.938 232.256 79.884 231.959 79.857L231.095 79.803C230.527 79.749 229.933 79.722 229.366 79.668C228.798 79.614 228.204 79.614 227.637 79.587L225.881 79.506C224.719 79.506 223.557 79.479 222.396 79.4521C223.557 79.3441 224.719 79.2631 225.881 79.2091C227.042 79.1821 228.231 79.1551 229.393 79.1821C231.743 79.2631 234.066 79.4251 236.39 79.83L237.254 79.965C237.551 80.019 237.822 80.073 238.119 80.154L238.983 80.343C239.28 80.3969 239.551 80.4509 239.848 80.5319L241.55 80.9909C242.117 81.1799 242.657 81.3688 243.225 81.5308C243.495 81.6388 243.765 81.7468 244.035 81.8548C244.305 81.9628 244.576 82.0708 244.846 82.1787L245.656 82.5567L246.061 82.7457L246.44 82.9617C247.52 83.4746 248.52 84.0685 249.411 84.8245Z" fill="#272727"/>
<path d="M248.546 87.0652C247.439 86.6602 246.304 86.4172 245.169 86.2553L244.737 86.1743L244.305 86.1203L243.44 86.0123C242.873 85.9583 242.279 85.9043 241.711 85.8773C241.144 85.8503 240.55 85.8503 239.982 85.8233L238.253 85.8503C237.956 85.8503 237.686 85.8773 237.389 85.8773L236.524 85.9313C236.227 85.9583 235.957 85.9583 235.66 85.9853L234.795 86.0663L233.931 86.1473L233.499 86.1743C233.364 86.1743 233.201 86.2013 233.066 86.2283L231.337 86.4712C231.04 86.4982 230.77 86.5522 230.473 86.5792L229.608 86.7412C229.041 86.8492 228.474 86.9572 227.879 87.0382C227.312 87.1461 226.745 87.2811 226.177 87.3891L224.475 87.7401C223.341 88.0101 222.206 88.307 221.071 88.55C222.179 88.172 223.287 87.7941 224.394 87.4431C225.529 87.1461 226.637 86.8222 227.798 86.5522C230.095 86.0393 232.391 85.6073 234.741 85.4183L235.606 85.3374C235.903 85.3104 236.2 85.3104 236.497 85.2834L237.389 85.2564C237.686 85.2564 237.983 85.2294 238.28 85.2294L240.036 85.2564C240.631 85.2834 241.198 85.3374 241.792 85.3644C242.09 85.3914 242.387 85.4453 242.657 85.4723C242.954 85.4993 243.251 85.5263 243.521 85.5803L244.386 85.7423L244.818 85.8233L245.25 85.9313C246.358 86.2013 247.493 86.5522 248.546 87.0652Z" fill="#272727"/>
<path d="M248.789 89.36C247.628 89.306 246.466 89.4139 245.304 89.6029L244.872 89.6569L244.44 89.7379L243.575 89.8999C243.008 90.0349 242.441 90.1429 241.873 90.2778C241.306 90.4398 240.766 90.6018 240.198 90.7368L238.55 91.2767C238.28 91.3577 238.01 91.4657 237.74 91.5737L236.929 91.8707C236.659 91.9787 236.389 92.0596 236.119 92.1676L235.308 92.5186L234.498 92.8426L234.093 93.0045C233.958 93.0585 233.823 93.1125 233.688 93.1935L232.121 93.9494C231.85 94.0844 231.58 94.1924 231.337 94.3274L230.554 94.7323C230.04 95.0023 229.527 95.2723 229.014 95.5423C228.5 95.8122 228.014 96.1092 227.501 96.4062L225.988 97.2701C224.988 97.864 223.989 98.4849 222.989 99.0789C223.935 98.3769 224.88 97.702 225.826 97.0271C226.798 96.4062 227.798 95.7582 228.798 95.1643C230.824 94.0034 232.904 92.8966 235.065 92.0057L235.876 91.6547C236.146 91.5467 236.416 91.4657 236.713 91.3577L237.551 91.0608C237.821 90.9528 238.091 90.8448 238.388 90.7908L240.063 90.2778C240.631 90.1429 241.198 90.0079 241.765 89.8729C242.062 89.8189 242.333 89.7649 242.63 89.7109C242.927 89.6569 243.197 89.6029 243.494 89.5489L244.359 89.4409L244.791 89.387L245.223 89.36C246.466 89.198 247.628 89.171 248.789 89.36Z" fill="#272727"/>
<path d="M255.624 48.5675C255.624 48.5675 247.222 41.1703 237.875 47.3796C237.875 47.3796 238.334 40.5224 247.222 41.1703C256.111 41.8182 255.624 48.5675 255.624 48.5675Z" fill="#272727"/>
<path d="M266.431 48.5675C266.431 48.5675 274.832 41.1703 284.18 47.3796C284.18 47.3796 283.721 40.5224 274.832 41.1703C265.944 41.8182 266.431 48.5675 266.431 48.5675Z" fill="#272727"/>
</g>
<defs>
<clipPath id="clip0_1347_2779">
<rect width="523" height="267" fill="white"/>
</clipPath>
</defs>
</svg>
