<svg width="64" height="64" viewBox="0 0 64 64" fill="none" xmlns="http://www.w3.org/2000/svg">
<rect width="64" height="64" rx="8" fill="#6F61CF"/>
<path d="M23.056 24.2H26.428L32.536 41H29.428L28.348 38.024H21.148L20.068 41H16.96L23.056 24.2ZM22.216 35.096H27.268L24.736 28.172L22.216 35.096ZM34.5494 41V24.2H40.6694C41.5574 24.2 42.3574 24.384 43.0694 24.752C43.7894 25.112 44.3574 25.632 44.7734 26.312C45.1974 26.984 45.4094 27.78 45.4094 28.7C45.4094 29.108 45.3494 29.52 45.2294 29.936C45.1094 30.352 44.9254 30.728 44.6774 31.064C44.4294 31.392 44.1094 31.636 43.7174 31.796C44.2374 31.924 44.6614 32.156 44.9894 32.492C45.3174 32.828 45.5734 33.224 45.7574 33.68C45.9414 34.128 46.0654 34.588 46.1294 35.06C46.2014 35.524 46.2374 35.956 46.2374 36.356C46.2374 37.244 46.0174 38.036 45.5774 38.732C45.1374 39.428 44.5454 39.98 43.8014 40.388C43.0654 40.796 42.2494 41 41.3534 41H34.5494ZM37.4774 38.492H41.0534C41.5334 38.492 41.9654 38.376 42.3494 38.144C42.7334 37.912 43.0414 37.592 43.2734 37.184C43.5054 36.776 43.6214 36.312 43.6214 35.792C43.6214 35.344 43.5054 34.92 43.2734 34.52C43.0414 34.12 42.7334 33.796 42.3494 33.548C41.9654 33.3 41.5334 33.176 41.0534 33.176H37.4774V38.492ZM37.4774 30.704H40.3334C40.9254 30.704 41.4294 30.52 41.8454 30.152C42.2694 29.784 42.4814 29.296 42.4814 28.688C42.4814 28.04 42.2694 27.552 41.8454 27.224C41.4294 26.888 40.9254 26.72 40.3334 26.72H37.4774V30.704Z" fill="white"/>
</svg>
