<svg width="20" height="18" viewBox="0 0 20 18" fill="none" xmlns="http://www.w3.org/2000/svg">
<path d="M6.66663 16.5H13.3333M9.99996 13.1667V16.5M5.66663 13.1667H14.3333C15.7334 13.1667 16.4335 13.1667 16.9683 12.8942C17.4387 12.6545 17.8211 12.272 18.0608 11.8016C18.3333 11.2669 18.3333 10.5668 18.3333 9.16667V5.5C18.3333 4.09987 18.3333 3.3998 18.0608 2.86502C17.8211 2.39462 17.4387 2.01217 16.9683 1.77248C16.4335 1.5 15.7334 1.5 14.3333 1.5H5.66663C4.26649 1.5 3.56643 1.5 3.03165 1.77248C2.56124 2.01217 2.17879 2.39462 1.93911 2.86502C1.66663 3.3998 1.66663 4.09987 1.66663 5.5V9.16667C1.66663 10.5668 1.66663 11.2669 1.93911 11.8016C2.17879 12.272 2.56124 12.6545 3.03165 12.8942C3.56643 13.1667 4.26649 13.1667 5.66663 13.1667Z" stroke="white" stroke-width="2" stroke-linecap="round" stroke-linejoin="round"/>
</svg>
