<svg width="18" height="18" viewBox="0 0 18 18" fill="none" xmlns="http://www.w3.org/2000/svg">
<path d="M11.5 16.5V12C11.5 11.5333 11.5 11.2999 11.4092 11.1217C11.3293 10.9649 11.2018 10.8374 11.045 10.7575C10.8667 10.6667 10.6334 10.6667 10.1667 10.6667H7.83333C7.36662 10.6667 7.13327 10.6667 6.95501 10.7575C6.79821 10.8374 6.67072 10.9649 6.59083 11.1217C6.5 11.2999 6.5 11.5333 6.5 12V16.5M14.8333 16.5V4.16667C14.8333 3.23325 14.8333 2.76654 14.6517 2.41002C14.4919 2.09641 14.2369 1.84144 13.9233 1.68166C13.5668 1.5 13.1001 1.5 12.1667 1.5H5.83333C4.89991 1.5 4.4332 1.5 4.07668 1.68166C3.76308 1.84144 3.50811 2.09641 3.34832 2.41002C3.16667 2.76654 3.16667 3.23325 3.16667 4.16667V16.5M16.5 16.5H1.5M6.91667 5.66667H6.925M11.0833 5.66667H11.0917M7.33333 5.66667C7.33333 5.89679 7.14679 6.08333 6.91667 6.08333C6.68655 6.08333 6.5 5.89679 6.5 5.66667C6.5 5.43655 6.68655 5.25 6.91667 5.25C7.14679 5.25 7.33333 5.43655 7.33333 5.66667ZM11.5 5.66667C11.5 5.89679 11.3135 6.08333 11.0833 6.08333C10.8532 6.08333 10.6667 5.89679 10.6667 5.66667C10.6667 5.43655 10.8532 5.25 11.0833 5.25C11.3135 5.25 11.5 5.43655 11.5 5.66667Z" stroke="white" stroke-width="1.5" stroke-linecap="round" stroke-linejoin="round"/>
</svg>
