<svg width="20" height="20" viewBox="0 0 20 20" fill="none" xmlns="http://www.w3.org/2000/svg">
<g clip-path="url(#clip0_267_4076)">
<path d="M7.5 10.0001L9.16667 11.6667L12.9167 7.91675M14.9177 4.1655C15.0893 4.58053 15.4186 4.91041 15.8334 5.08264L17.2877 5.68506C17.7027 5.85698 18.0325 6.18674 18.2044 6.6018C18.3763 7.01685 18.3763 7.4832 18.2044 7.89826L17.6024 9.35158C17.4304 9.76682 17.4302 10.2336 17.603 10.6487L18.2039 12.1016C18.2891 12.3071 18.333 12.5275 18.333 12.75C18.3331 12.9726 18.2893 13.1929 18.2041 13.3985C18.1189 13.6041 17.9941 13.7909 17.8367 13.9483C17.6794 14.1056 17.4925 14.2304 17.2869 14.3155L15.8336 14.9175C15.4186 15.0891 15.0887 15.4185 14.9165 15.8332L14.3141 17.2876C14.1422 17.7027 13.8125 18.0324 13.3974 18.2043C12.9824 18.3763 12.5161 18.3763 12.101 18.2043L10.6477 17.6023C10.2327 17.4308 9.76652 17.4312 9.35173 17.6033L7.89741 18.2049C7.4826 18.3764 7.01668 18.3763 6.60197 18.2045C6.18727 18.0327 5.85771 17.7033 5.68568 17.2887L5.0831 15.8339C4.9115 15.4189 4.58212 15.089 4.16737 14.9168L2.71305 14.3143C2.29819 14.1425 1.96855 13.813 1.79657 13.3981C1.62459 12.9833 1.62436 12.5172 1.79592 12.1022L2.39789 10.6489C2.56938 10.2338 2.56903 9.76762 2.39691 9.35282L1.79581 7.8974C1.71059 7.69183 1.6667 7.47148 1.66667 7.24894C1.66663 7.0264 1.71044 6.80604 1.7956 6.60044C1.88076 6.39484 2.00559 6.20804 2.16297 6.05071C2.32035 5.89338 2.50719 5.7686 2.7128 5.6835L4.16608 5.08151C4.58073 4.91006 4.9104 4.58108 5.08275 4.1668L5.68515 2.71242C5.85707 2.29737 6.18681 1.96761 6.60185 1.79569C7.01689 1.62377 7.48322 1.62377 7.89826 1.79569L9.35154 2.39768C9.76659 2.56918 10.2328 2.56882 10.6475 2.3967L12.1025 1.79662C12.5175 1.6248 12.9837 1.62483 13.3987 1.79672C13.8136 1.96861 14.1433 2.29827 14.3153 2.71322L14.9178 4.16802L14.9177 4.1655Z" stroke="white" stroke-width="1.5" stroke-linecap="round" stroke-linejoin="round"/>
</g>
<defs>
<clipPath id="clip0_267_4076">
<rect width="20" height="20" fill="white"/>
</clipPath>
</defs>
</svg>
