<svg width="20" height="20" viewBox="0 0 20 20" fill="none" xmlns="http://www.w3.org/2000/svg">
<path d="M6.30984 17.5C7.42218 16.9665 8.67497 16.6667 10 16.6667C11.325 16.6667 12.5778 16.9665 13.6902 17.5M5.66667 14.1667H14.3333C15.7335 14.1667 16.4335 14.1667 16.9683 13.8942C17.4387 13.6545 17.8212 13.272 18.0608 12.8016C18.3333 12.2669 18.3333 11.5668 18.3333 10.1667V6.5C18.3333 5.09987 18.3333 4.3998 18.0608 3.86502C17.8212 3.39462 17.4387 3.01217 16.9683 2.77248C16.4335 2.5 15.7335 2.5 14.3333 2.5H5.66667C4.26653 2.5 3.56647 2.5 3.03169 2.77248C2.56128 3.01217 2.17883 3.39462 1.93915 3.86502C1.66667 4.3998 1.66667 5.09987 1.66667 6.5V10.1667C1.66667 11.5668 1.66667 12.2669 1.93915 12.8016C2.17883 13.272 2.56128 13.6545 3.03169 13.8942C3.56647 14.1667 4.26653 14.1667 5.66667 14.1667Z" stroke="white" stroke-width="1.5" stroke-linecap="round" stroke-linejoin="round"/>
</svg>
