<svg width="20" height="21" viewBox="0 0 20 21" fill="none" xmlns="http://www.w3.org/2000/svg">
<path d="M7.82924 16.6426L8.31628 17.7379C8.46106 18.064 8.69734 18.341 8.99647 18.5355C9.29559 18.7299 9.6447 18.8334 10.0015 18.8333C10.3582 18.8334 10.7073 18.7299 11.0065 18.5355C11.3056 18.341 11.5419 18.064 11.6866 17.7379L12.1737 16.6426C12.3471 16.2539 12.6387 15.9298 13.007 15.7166C13.3777 15.5028 13.8065 15.4118 14.232 15.4564L15.4237 15.5833C15.7784 15.6208 16.1364 15.5546 16.4543 15.3927C16.7721 15.2309 17.0362 14.9802 17.2144 14.6713C17.3929 14.3625 17.4779 14.0085 17.4592 13.6524C17.4405 13.2962 17.3188 12.9531 17.1089 12.6648L16.4033 11.6953C16.1521 11.3476 16.0178 10.929 16.02 10.5C16.0199 10.0721 16.1554 9.65525 16.407 9.30922L17.1126 8.33977C17.3225 8.05142 17.4442 7.70835 17.4629 7.35219C17.4816 6.99602 17.3966 6.64208 17.2181 6.33329C17.0399 6.02432 16.7758 5.7737 16.458 5.61182C16.1401 5.44993 15.7821 5.38373 15.4274 5.42126L14.2357 5.54811C13.8102 5.5928 13.3814 5.50173 13.0107 5.28792C12.6417 5.0735 12.35 4.74776 12.1774 4.35737L11.6866 3.262C11.5419 2.93594 11.3056 2.65889 11.0065 2.46446C10.7073 2.27003 10.3582 2.16657 10.0015 2.16663C9.6447 2.16657 9.29559 2.27003 8.99647 2.46446C8.69734 2.65889 8.46106 2.93594 8.31628 3.262L7.82924 4.35737C7.65668 4.74776 7.36497 5.0735 6.99591 5.28792C6.62526 5.50173 6.19647 5.5928 5.77091 5.54811L4.57554 5.42126C4.22081 5.38373 3.86282 5.44993 3.54497 5.61182C3.22711 5.7737 2.96305 6.02432 2.7848 6.33329C2.60632 6.64208 2.52128 6.99602 2.54002 7.35219C2.55876 7.70835 2.68046 8.05142 2.89035 8.33977L3.59591 9.30922C3.84753 9.65525 3.98302 10.0721 3.98295 10.5C3.98302 10.9278 3.84753 11.3447 3.59591 11.6907L2.89035 12.6601C2.68046 12.9485 2.55876 13.2916 2.54002 13.6477C2.52128 14.0039 2.60632 14.3578 2.7848 14.6666C2.96323 14.9754 3.22732 15.2259 3.54513 15.3878C3.86294 15.5496 4.22084 15.6159 4.57554 15.5787L5.76721 15.4518C6.19276 15.4071 6.62155 15.4982 6.99221 15.712C7.36265 15.9258 7.65571 16.2516 7.82924 16.6426Z" stroke="white" stroke-width="1.5" stroke-linecap="round" stroke-linejoin="round"/>
<path d="M9.99998 13C11.3807 13 12.5 11.8807 12.5 10.5C12.5 9.11925 11.3807 7.99996 9.99998 7.99996C8.61926 7.99996 7.49998 9.11925 7.49998 10.5C7.49998 11.8807 8.61926 13 9.99998 13Z" stroke="#ffffff" stroke-width="1.5" stroke-linecap="round" stroke-linejoin="round"/>
</svg>
