<svg width="245" height="80" viewBox="0 0 245 80" fill="none" xmlns="http://www.w3.org/2000/svg">
<g filter="url(#filter0_d_1041_2184)">
<path d="M18.711 48.4097L30.2251 28.5421C31.334 26.6288 34.0614 26.532 35.3032 28.3619L36.7416 30.4816C37.39 31.4372 37.4324 32.6802 36.8505 33.6777L30.8886 43.8981C29.722 45.8981 31.1646 48.4097 33.4799 48.4097H45.0842C46.1489 48.4097 47.1339 48.974 47.6723 49.8925L48.7916 51.802C49.964 53.8019 48.5218 56.3191 46.2035 56.3191H23.3475C16.8018 56.3191 15.4346 54.3683 18.711 48.4097Z" fill="url(#paint0_radial_1041_2184)"/>
</g>
<g filter="url(#filter1_d_1041_2184)">
<path d="M60.638 23.5903L49.1239 43.4579C48.015 45.3712 45.2876 45.468 44.0458 43.6381L42.6074 41.5184C41.959 40.5628 41.9166 39.3198 42.4985 38.3223L48.4604 28.1019C49.627 26.1019 48.1844 23.5903 45.8691 23.5903H34.2648C33.2001 23.5903 32.2151 23.026 31.6767 22.1075L30.5574 20.198C29.385 18.1981 30.8272 15.6809 33.1455 15.6809H56.0015C62.5472 15.6809 63.9144 17.6317 60.638 23.5903Z" fill="url(#paint1_radial_1041_2184)"/>
</g>
<path d="M94.949 22V27.52H86.709V50H81.189V27.52H72.949V22H94.949ZM98.1443 50V22H115.864V27.52H103.664V32.24H113.184V37.76H103.664V44.48H115.864V50H98.1443ZM132.375 50.52C130.481 50.52 128.701 50.1467 127.035 49.4C125.368 48.64 123.901 47.5933 122.635 46.26C121.381 44.9267 120.395 43.3867 119.675 41.64C118.968 39.88 118.615 38 118.615 36C118.615 33.9867 118.968 32.1067 119.675 30.36C120.395 28.6 121.381 27.06 122.635 25.74C123.901 24.4067 125.368 23.3667 127.035 22.62C128.701 21.86 130.481 21.48 132.375 21.48C134.641 21.48 136.728 22.0067 138.635 23.06C140.541 24.1 142.121 25.4933 143.375 27.24L138.455 29.9C137.708 29.02 136.808 28.32 135.755 27.8C134.701 27.2667 133.575 27 132.375 27C131.241 27 130.175 27.2333 129.175 27.7C128.175 28.1667 127.295 28.8133 126.535 29.64C125.788 30.4667 125.201 31.42 124.775 32.5C124.348 33.58 124.135 34.7467 124.135 36C124.135 37.24 124.348 38.4067 124.775 39.5C125.201 40.58 125.788 41.5333 126.535 42.36C127.295 43.1733 128.175 43.82 129.175 44.3C130.175 44.7667 131.241 45 132.375 45C133.588 45 134.715 44.7333 135.755 44.2C136.808 43.6667 137.708 42.96 138.455 42.08L143.375 44.76C142.121 46.4933 140.541 47.8867 138.635 48.94C136.728 49.9933 134.641 50.52 132.375 50.52ZM162.392 22H167.912V50H162.392V37.76H151.752V50H146.232V22H151.752V32.24H162.392V22ZM171.916 50V22H182.336C183.843 22 185.21 22.3133 186.436 22.94C187.663 23.5533 188.63 24.4333 189.336 25.58C190.056 26.7267 190.416 28.0733 190.416 29.62C190.416 30.2467 190.33 30.8933 190.156 31.56C189.996 32.2267 189.716 32.84 189.316 33.4C188.93 33.96 188.396 34.3867 187.716 34.68C188.596 34.8933 189.303 35.2933 189.836 35.88C190.37 36.4533 190.776 37.12 191.056 37.88C191.336 38.6267 191.523 39.3933 191.616 40.18C191.71 40.9667 191.756 41.68 191.756 42.32C191.756 43.76 191.383 45.06 190.636 46.22C189.89 47.38 188.883 48.3 187.616 48.98C186.363 49.66 184.976 50 183.456 50H171.916ZM177.436 45.3H182.876C183.61 45.3 184.276 45.1267 184.876 44.78C185.476 44.42 185.956 43.9333 186.316 43.32C186.676 42.6933 186.856 41.9867 186.856 41.2C186.856 40.5333 186.676 39.9 186.316 39.3C185.956 38.7 185.476 38.2133 184.876 37.84C184.276 37.4533 183.61 37.26 182.876 37.26H177.436V45.3ZM177.436 32.66H181.696C182.576 32.66 183.33 32.3733 183.956 31.8C184.583 31.2267 184.896 30.4867 184.896 29.58C184.896 28.6467 184.583 27.94 183.956 27.46C183.33 26.9667 182.576 26.72 181.696 26.72H177.436V32.66ZM202.429 22H208.709L218.869 50H213.009L211.329 45.36H199.809L198.129 50H192.269L202.429 22ZM201.829 39.84H209.309L205.549 29.58L201.829 39.84ZM221.332 50V22H232.452C233.972 22 235.345 22.3867 236.572 23.16C237.812 23.92 238.792 24.9467 239.512 26.24C240.245 27.52 240.612 28.94 240.612 30.5C240.612 31.7267 240.398 32.8667 239.972 33.92C239.545 34.96 238.945 35.8733 238.172 36.66C237.398 37.4467 236.498 38.06 235.472 38.5L242.132 50H235.772L229.392 39H226.852V50H221.332ZM226.852 33.48H231.792C232.392 33.48 232.938 33.3333 233.432 33.04C233.938 32.7333 234.338 32.3267 234.632 31.82C234.938 31.3 235.092 30.7267 235.092 30.1C235.092 29.4867 234.938 28.9267 234.632 28.42C234.338 27.9 233.938 27.4867 233.432 27.18C232.938 26.8733 232.392 26.72 231.792 26.72H226.852V33.48Z" fill="white"/>
<defs>
<filter id="filter0_d_1041_2184" x="0" y="12.0464" width="70.2081" height="67.2729" filterUnits="userSpaceOnUse" color-interpolation-filters="sRGB">
<feFlood flood-opacity="0" result="BackgroundImageFix"/>
<feColorMatrix in="SourceAlpha" type="matrix" values="0 0 0 0 0 0 0 0 0 0 0 0 0 0 0 0 0 0 127 0" result="hardAlpha"/>
<feOffset dx="2" dy="4"/>
<feGaussianBlur stdDeviation="9.5"/>
<feComposite in2="hardAlpha" operator="out"/>
<feColorMatrix type="matrix" values="0 0 0 0 0.929412 0 0 0 0 0.509804 0 0 0 0 0.113725 0 0 0 0.1 0"/>
<feBlend mode="normal" in2="BackgroundImageFix" result="effect1_dropShadow_1041_2184"/>
<feBlend mode="normal" in="SourceGraphic" in2="effect1_dropShadow_1041_2184" result="shape"/>
</filter>
<filter id="filter1_d_1041_2184" x="13.1409" y="0.680664" width="70.2081" height="67.2729" filterUnits="userSpaceOnUse" color-interpolation-filters="sRGB">
<feFlood flood-opacity="0" result="BackgroundImageFix"/>
<feColorMatrix in="SourceAlpha" type="matrix" values="0 0 0 0 0 0 0 0 0 0 0 0 0 0 0 0 0 0 127 0" result="hardAlpha"/>
<feOffset dx="2" dy="4"/>
<feGaussianBlur stdDeviation="9.5"/>
<feComposite in2="hardAlpha" operator="out"/>
<feColorMatrix type="matrix" values="0 0 0 0 0 0 0 0 0 0 0 0 0 0 0 0 0 0 0.05 0"/>
<feBlend mode="normal" in2="BackgroundImageFix" result="effect1_dropShadow_1041_2184"/>
<feBlend mode="normal" in="SourceGraphic" in2="effect1_dropShadow_1041_2184" result="shape"/>
</filter>
<radialGradient id="paint0_radial_1041_2184" cx="0" cy="0" r="1" gradientUnits="userSpaceOnUse" gradientTransform="translate(6.59291 62.966) rotate(-36.9353) scale(79.8832 86.2147)">
<stop stop-color="#E77100"/>
<stop offset="1" stop-color="#FFB36A"/>
</radialGradient>
<radialGradient id="paint1_radial_1041_2184" cx="0" cy="0" r="1" gradientUnits="userSpaceOnUse" gradientTransform="translate(77.6278 5.27124) rotate(144.153) scale(61.3303 66.1913)">
<stop stop-color="#281E70"/>
<stop offset="1" stop-color="#3D20FF"/>
</radialGradient>
</defs>
</svg>
