<svg width="279" height="80" viewBox="0 0 279 80" fill="none" xmlns="http://www.w3.org/2000/svg">
<g filter="url(#filter0_d_1041_2184)">
<path d="M18.711 48.4097L30.2251 28.5421C31.334 26.6288 34.0614 26.532 35.3032 28.3619L36.7416 30.4816C37.39 31.4372 37.4324 32.6802 36.8505 33.6777L30.8886 43.8981C29.722 45.8981 31.1646 48.4097 33.4799 48.4097H45.0842C46.1489 48.4097 47.1339 48.974 47.6723 49.8925L48.7916 51.802C49.964 53.8019 48.5218 56.3191 46.2035 56.3191H23.3475C16.8018 56.3191 15.4346 54.3683 18.711 48.4097Z" fill="url(#paint0_radial_1041_2184)"/>
</g>
<g filter="url(#filter1_d_1041_2184)">
<path d="M60.638 23.5903L49.1239 43.4579C48.015 45.3712 45.2876 45.468 44.0458 43.6381L42.6074 41.5184C41.959 40.5628 41.9166 39.3198 42.4985 38.3223L48.4604 28.1019C49.627 26.1019 48.1844 23.5903 45.8691 23.5903H34.2648C33.2001 23.5903 32.2151 23.026 31.6767 22.1075L30.5574 20.198C29.385 18.1981 30.8272 15.6809 33.1455 15.6809H56.0015C62.5472 15.6809 63.9144 17.6317 60.638 23.5903Z" fill="url(#paint1_radial_1041_2184)"/>
</g>
<path d="M99.669 19.4V26.024H89.781V53H83.157V26.024H73.269V19.4H99.669ZM103.503 53V19.4H124.767V26.024H110.127V31.688H121.551V38.312H110.127V46.376H124.767V53H103.503ZM144.58 53.624C142.308 53.624 140.172 53.176 138.172 52.28C136.172 51.368 134.412 50.112 132.892 48.512C131.388 46.912 130.204 45.064 129.34 42.968C128.492 40.856 128.068 38.6 128.068 36.2C128.068 33.784 128.492 31.528 129.34 29.432C130.204 27.32 131.388 25.472 132.892 23.888C134.412 22.288 136.172 21.04 138.172 20.144C140.172 19.232 142.308 18.776 144.58 18.776C147.3 18.776 149.804 19.408 152.092 20.672C154.38 21.92 156.276 23.592 157.78 25.688L151.876 28.88C150.98 27.824 149.9 26.984 148.636 26.36C147.372 25.72 146.02 25.4 144.58 25.4C143.22 25.4 141.94 25.68 140.74 26.24C139.54 26.8 138.484 27.576 137.572 28.568C136.676 29.56 135.972 30.704 135.46 32C134.948 33.296 134.692 34.696 134.692 36.2C134.692 37.688 134.948 39.088 135.46 40.4C135.972 41.696 136.676 42.84 137.572 43.832C138.484 44.808 139.54 45.584 140.74 46.16C141.94 46.72 143.22 47 144.58 47C146.036 47 147.388 46.68 148.636 46.04C149.9 45.4 150.98 44.552 151.876 43.496L157.78 46.712C156.276 48.792 154.38 50.464 152.092 51.728C149.804 52.992 147.3 53.624 144.58 53.624ZM180.6 19.4H187.224V53H180.6V38.312H167.832V53H161.208V19.4H167.832V31.688H180.6V19.4ZM192.03 53V19.4H204.534C206.342 19.4 207.982 19.776 209.454 20.528C210.926 21.264 212.086 22.32 212.934 23.696C213.798 25.072 214.23 26.688 214.23 28.544C214.23 29.296 214.126 30.072 213.918 30.872C213.726 31.672 213.39 32.408 212.91 33.08C212.446 33.752 211.806 34.264 210.99 34.616C212.046 34.872 212.894 35.352 213.534 36.056C214.174 36.744 214.662 37.544 214.998 38.456C215.334 39.352 215.558 40.272 215.67 41.216C215.782 42.16 215.838 43.016 215.838 43.784C215.838 45.512 215.39 47.072 214.494 48.464C213.598 49.856 212.39 50.96 210.87 51.776C209.366 52.592 207.702 53 205.878 53H192.03ZM198.654 47.36H205.182C206.062 47.36 206.862 47.152 207.582 46.736C208.302 46.304 208.878 45.72 209.31 44.984C209.742 44.232 209.958 43.384 209.958 42.44C209.958 41.64 209.742 40.88 209.31 40.16C208.878 39.44 208.302 38.856 207.582 38.408C206.862 37.944 206.062 37.712 205.182 37.712H198.654V47.36ZM198.654 32.192H203.766C204.822 32.192 205.726 31.848 206.478 31.16C207.23 30.472 207.606 29.584 207.606 28.496C207.606 27.376 207.23 26.528 206.478 25.952C205.726 25.36 204.822 25.064 203.766 25.064H198.654V32.192ZM228.645 19.4H236.181L248.373 53H241.341L239.325 47.432H225.501L223.485 53H216.453L228.645 19.4ZM227.925 40.808H236.901L232.389 28.496L227.925 40.808ZM251.328 53V19.4H264.672C266.496 19.4 268.144 19.864 269.616 20.792C271.104 21.704 272.28 22.936 273.144 24.488C274.024 26.024 274.464 27.728 274.464 29.6C274.464 31.072 274.208 32.44 273.696 33.704C273.184 34.952 272.464 36.048 271.536 36.992C270.608 37.936 269.528 38.672 268.296 39.2L276.288 53H268.656L261 39.8H257.952V53H251.328ZM257.952 33.176H263.88C264.6 33.176 265.256 33 265.848 32.648C266.456 32.28 266.936 31.792 267.288 31.184C267.656 30.56 267.84 29.872 267.84 29.12C267.84 28.384 267.656 27.712 267.288 27.104C266.936 26.48 266.456 25.984 265.848 25.616C265.256 25.248 264.6 25.064 263.88 25.064H257.952V33.176Z" fill="white"/>
<defs>
<filter id="filter0_d_1041_2184" x="0" y="12.0464" width="70.2081" height="67.2729" filterUnits="userSpaceOnUse" color-interpolation-filters="sRGB">
<feFlood flood-opacity="0" result="BackgroundImageFix"/>
<feColorMatrix in="SourceAlpha" type="matrix" values="0 0 0 0 0 0 0 0 0 0 0 0 0 0 0 0 0 0 127 0" result="hardAlpha"/>
<feOffset dx="2" dy="4"/>
<feGaussianBlur stdDeviation="9.5"/>
<feComposite in2="hardAlpha" operator="out"/>
<feColorMatrix type="matrix" values="0 0 0 0 0.929412 0 0 0 0 0.509804 0 0 0 0 0.113725 0 0 0 0.1 0"/>
<feBlend mode="normal" in2="BackgroundImageFix" result="effect1_dropShadow_1041_2184"/>
<feBlend mode="normal" in="SourceGraphic" in2="effect1_dropShadow_1041_2184" result="shape"/>
</filter>
<filter id="filter1_d_1041_2184" x="13.1409" y="0.680664" width="70.2081" height="67.2729" filterUnits="userSpaceOnUse" color-interpolation-filters="sRGB">
<feFlood flood-opacity="0" result="BackgroundImageFix"/>
<feColorMatrix in="SourceAlpha" type="matrix" values="0 0 0 0 0 0 0 0 0 0 0 0 0 0 0 0 0 0 127 0" result="hardAlpha"/>
<feOffset dx="2" dy="4"/>
<feGaussianBlur stdDeviation="9.5"/>
<feComposite in2="hardAlpha" operator="out"/>
<feColorMatrix type="matrix" values="0 0 0 0 0 0 0 0 0 0 0 0 0 0 0 0 0 0 0.05 0"/>
<feBlend mode="normal" in2="BackgroundImageFix" result="effect1_dropShadow_1041_2184"/>
<feBlend mode="normal" in="SourceGraphic" in2="effect1_dropShadow_1041_2184" result="shape"/>
</filter>
<radialGradient id="paint0_radial_1041_2184" cx="0" cy="0" r="1" gradientUnits="userSpaceOnUse" gradientTransform="translate(6.59291 62.966) rotate(-36.9353) scale(79.8832 86.2147)">
<stop stop-color="#E77100"/>
<stop offset="1" stop-color="#FFB36A"/>
</radialGradient>
<radialGradient id="paint1_radial_1041_2184" cx="0" cy="0" r="1" gradientUnits="userSpaceOnUse" gradientTransform="translate(77.6278 5.27124) rotate(144.153) scale(61.3303 66.1913)">
<stop stop-color="#281E70"/>
<stop offset="1" stop-color="#3D20FF"/>
</radialGradient>
</defs>
</svg>
