<svg width="262" height="79" viewBox="0 0 262 79" fill="none" xmlns="http://www.w3.org/2000/svg">
<g filter="url(#filter0_d_1041_2184)">
<path d="M18.711 47.9097L30.2251 28.0421C31.334 26.1288 34.0614 26.032 35.3032 27.8619L36.7416 29.9816C37.39 30.9372 37.4324 32.1802 36.8505 33.1777L30.8886 43.3981C29.722 45.3981 31.1646 47.9097 33.4799 47.9097H45.0842C46.1489 47.9097 47.1339 48.474 47.6723 49.3925L48.7916 51.302C49.964 53.3019 48.5218 55.8191 46.2035 55.8191H23.3475C16.8018 55.8191 15.4346 53.8683 18.711 47.9097Z" fill="url(#paint0_radial_1041_2184)"/>
</g>
<g filter="url(#filter1_d_1041_2184)">
<path d="M60.638 23.0903L49.1239 42.9579C48.015 44.8712 45.2876 44.968 44.0458 43.1381L42.6074 41.0184C41.959 40.0628 41.9166 38.8198 42.4985 37.8223L48.4604 27.6019C49.627 25.6019 48.1844 23.0903 45.8691 23.0903H34.2648C33.2001 23.0903 32.2151 22.526 31.6767 21.6075L30.5574 19.698C29.385 17.6981 30.8272 15.1809 33.1455 15.1809H56.0015C62.5472 15.1809 63.9144 17.1317 60.638 23.0903Z" fill="url(#paint1_radial_1041_2184)"/>
</g>
<path d="M97.309 20.2V26.272H88.245V51H82.173V26.272H73.109V20.2H97.309ZM100.824 51V20.2H120.316V26.272H106.896V31.464H117.368V37.536H106.896V44.928H120.316V51H100.824ZM138.477 51.572C136.395 51.572 134.437 51.1613 132.603 50.34C130.77 49.504 129.157 48.3527 127.763 46.886C126.385 45.4193 125.299 43.7253 124.507 41.804C123.73 39.868 123.341 37.8 123.341 35.6C123.341 33.3853 123.73 31.3173 124.507 29.396C125.299 27.46 126.385 25.766 127.763 24.314C129.157 22.8473 130.77 21.7033 132.603 20.882C134.437 20.046 136.395 19.628 138.477 19.628C140.971 19.628 143.266 20.2073 145.363 21.366C147.461 22.51 149.199 24.0427 150.577 25.964L145.165 28.89C144.344 27.922 143.354 27.152 142.195 26.58C141.037 25.9933 139.797 25.7 138.477 25.7C137.231 25.7 136.057 25.9567 134.957 26.47C133.857 26.9833 132.889 27.6947 132.053 28.604C131.232 29.5133 130.587 30.562 130.117 31.75C129.648 32.938 129.413 34.2213 129.413 35.6C129.413 36.964 129.648 38.2473 130.117 39.45C130.587 40.638 131.232 41.6867 132.053 42.596C132.889 43.4907 133.857 44.202 134.957 44.73C136.057 45.2433 137.231 45.5 138.477 45.5C139.812 45.5 141.051 45.2067 142.195 44.62C143.354 44.0333 144.344 43.256 145.165 42.288L150.577 45.236C149.199 47.1427 147.461 48.6753 145.363 49.834C143.266 50.9927 140.971 51.572 138.477 51.572ZM171.496 20.2H177.568V51H171.496V37.536H159.792V51H153.72V20.2H159.792V31.464H171.496V20.2ZM181.973 51V20.2H193.435C195.092 20.2 196.596 20.5447 197.945 21.234C199.294 21.9087 200.358 22.8767 201.135 24.138C201.927 25.3993 202.323 26.8807 202.323 28.582C202.323 29.2713 202.228 29.9827 202.037 30.716C201.861 31.4493 201.553 32.124 201.113 32.74C200.688 33.356 200.101 33.8253 199.353 34.148C200.321 34.3827 201.098 34.8227 201.685 35.468C202.272 36.0987 202.719 36.832 203.027 37.668C203.335 38.4893 203.54 39.3327 203.643 40.198C203.746 41.0633 203.797 41.848 203.797 42.552C203.797 44.136 203.386 45.566 202.565 46.842C201.744 48.118 200.636 49.13 199.243 49.878C197.864 50.626 196.339 51 194.667 51H181.973ZM188.045 45.83H194.029C194.836 45.83 195.569 45.6393 196.229 45.258C196.889 44.862 197.417 44.3267 197.813 43.652C198.209 42.9627 198.407 42.1853 198.407 41.32C198.407 40.5867 198.209 39.89 197.813 39.23C197.417 38.57 196.889 38.0347 196.229 37.624C195.569 37.1987 194.836 36.986 194.029 36.986H188.045V45.83ZM188.045 31.926H192.731C193.699 31.926 194.528 31.6107 195.217 30.98C195.906 30.3493 196.251 29.5353 196.251 28.538C196.251 27.5113 195.906 26.734 195.217 26.206C194.528 25.6633 193.699 25.392 192.731 25.392H188.045V31.926ZM215.537 20.2H222.445L233.621 51H227.175L225.327 45.896H212.655L210.807 51H204.361L215.537 20.2ZM214.877 39.824H223.105L218.969 28.538L214.877 39.824ZM236.33 51V20.2H248.562C250.234 20.2 251.745 20.6253 253.094 21.476C254.458 22.312 255.536 23.4413 256.328 24.864C257.135 26.272 257.538 27.834 257.538 29.55C257.538 30.8993 257.303 32.1533 256.834 33.312C256.365 34.456 255.705 35.4607 254.854 36.326C254.003 37.1913 253.013 37.866 251.884 38.35L259.21 51H252.214L245.196 38.9H242.402V51H236.33ZM242.402 32.828H247.836C248.496 32.828 249.097 32.6667 249.64 32.344C250.197 32.0067 250.637 31.5593 250.96 31.002C251.297 30.43 251.466 29.7993 251.466 29.11C251.466 28.4353 251.297 27.8193 250.96 27.262C250.637 26.69 250.197 26.2353 249.64 25.898C249.097 25.5607 248.496 25.392 247.836 25.392H242.402V32.828Z" fill="white"/>
<defs>
<filter id="filter0_d_1041_2184" x="0" y="11.5464" width="70.2081" height="67.2729" filterUnits="userSpaceOnUse" color-interpolation-filters="sRGB">
<feFlood flood-opacity="0" result="BackgroundImageFix"/>
<feColorMatrix in="SourceAlpha" type="matrix" values="0 0 0 0 0 0 0 0 0 0 0 0 0 0 0 0 0 0 127 0" result="hardAlpha"/>
<feOffset dx="2" dy="4"/>
<feGaussianBlur stdDeviation="9.5"/>
<feComposite in2="hardAlpha" operator="out"/>
<feColorMatrix type="matrix" values="0 0 0 0 0.929412 0 0 0 0 0.509804 0 0 0 0 0.113725 0 0 0 0.1 0"/>
<feBlend mode="normal" in2="BackgroundImageFix" result="effect1_dropShadow_1041_2184"/>
<feBlend mode="normal" in="SourceGraphic" in2="effect1_dropShadow_1041_2184" result="shape"/>
</filter>
<filter id="filter1_d_1041_2184" x="13.1409" y="0.180664" width="70.2081" height="67.2729" filterUnits="userSpaceOnUse" color-interpolation-filters="sRGB">
<feFlood flood-opacity="0" result="BackgroundImageFix"/>
<feColorMatrix in="SourceAlpha" type="matrix" values="0 0 0 0 0 0 0 0 0 0 0 0 0 0 0 0 0 0 127 0" result="hardAlpha"/>
<feOffset dx="2" dy="4"/>
<feGaussianBlur stdDeviation="9.5"/>
<feComposite in2="hardAlpha" operator="out"/>
<feColorMatrix type="matrix" values="0 0 0 0 0 0 0 0 0 0 0 0 0 0 0 0 0 0 0.05 0"/>
<feBlend mode="normal" in2="BackgroundImageFix" result="effect1_dropShadow_1041_2184"/>
<feBlend mode="normal" in="SourceGraphic" in2="effect1_dropShadow_1041_2184" result="shape"/>
</filter>
<radialGradient id="paint0_radial_1041_2184" cx="0" cy="0" r="1" gradientUnits="userSpaceOnUse" gradientTransform="translate(6.59291 62.466) rotate(-36.9353) scale(79.8832 86.2147)">
<stop stop-color="#E77100"/>
<stop offset="1" stop-color="#FFB36A"/>
</radialGradient>
<radialGradient id="paint1_radial_1041_2184" cx="0" cy="0" r="1" gradientUnits="userSpaceOnUse" gradientTransform="translate(77.6278 4.77124) rotate(144.153) scale(61.3303 66.1913)">
<stop stop-color="#281E70"/>
<stop offset="1" stop-color="#3D20FF"/>
</radialGradient>
</defs>
</svg>
