<svg width="17" height="17" viewBox="0 0 17 17" fill="none" xmlns="http://www.w3.org/2000/svg">
<g clip-path="url(#clip0_1216_2185)">
<path d="M7.98636 17C8.34052 17 8.69469 17 9.04885 17C9.33662 16.9602 9.6288 16.9336 9.91656 16.8849C11.5103 16.6104 12.9181 15.9464 14.1267 14.8706C15.6009 13.5557 16.5262 11.9266 16.8715 9.97422C16.9246 9.66432 16.9601 9.35443 16.9999 9.04453C16.9999 8.69036 16.9999 8.3362 16.9999 7.98203C16.9733 7.77839 16.9556 7.57917 16.9246 7.37552C16.6634 5.53828 15.9064 3.92682 14.596 2.61198C12.4179 0.433853 9.78818 -0.385157 6.76448 0.216927C4.54208 0.659634 2.78896 1.87265 1.50953 3.73646C0.225678 5.60911 -0.21703 7.68984 0.154845 9.92995C0.447032 11.6875 1.23505 13.1971 2.48349 14.4633C3.74964 15.7427 5.27255 16.5484 7.05224 16.8583C7.36214 16.9247 7.67646 16.9557 7.98636 17ZM8.51318 7.51276C8.57073 7.45521 8.615 7.41536 8.65927 7.37109C9.11526 6.9151 9.57125 6.45911 10.0317 5.9987C10.2397 5.79062 10.4434 5.58255 10.6559 5.37891C10.8772 5.17083 11.1429 5.12213 11.4218 5.23724C11.6918 5.34792 11.8335 5.56484 11.8468 5.85703C11.8601 6.08724 11.7627 6.27318 11.5989 6.43255C10.9481 7.07891 10.3017 7.72969 9.65537 8.37604C9.61552 8.41588 9.57568 8.46458 9.52698 8.51328C9.57125 8.56198 9.60667 8.60182 9.64651 8.64167C9.98297 8.97812 10.3194 9.31458 10.6515 9.65104C10.9791 9.97865 11.3111 10.3018 11.6343 10.6383C11.9442 10.957 11.9088 11.4396 11.5723 11.7008C11.2845 11.9221 10.8949 11.8911 10.6116 11.6078C9.95641 10.957 9.30563 10.3062 8.65485 9.65104C8.61057 9.60677 8.5663 9.57135 8.5176 9.52266C8.46891 9.57135 8.42464 9.6112 8.38037 9.65104C7.72958 10.3018 7.0788 10.957 6.42359 11.6078C6.16682 11.8646 5.83037 11.9177 5.54703 11.7583C5.12646 11.5193 5.06005 10.9747 5.41865 10.6161C6.07386 9.95651 6.72906 9.30573 7.38427 8.64609C7.42412 8.60625 7.46396 8.56198 7.52151 8.5C7.46396 8.4513 7.41083 8.41588 7.37099 8.37161C6.72021 7.72083 6.065 7.07005 5.41422 6.41484C5.11318 6.1138 5.10875 5.67552 5.38766 5.39219C5.67099 5.10885 6.10485 5.11328 6.41031 5.41432C6.72464 5.72422 7.03453 6.03854 7.34886 6.34844C7.73401 6.73359 8.11474 7.11875 8.51318 7.51276Z" fill="#EF4444"/>
<path d="M8.51319 7.51282C8.11918 7.11438 7.73402 6.73365 7.35329 6.34849C7.0434 6.03417 6.72907 5.71985 6.41475 5.41438C6.10928 5.11334 5.67543 5.10891 5.3921 5.39224C5.10876 5.67558 5.11762 6.10943 5.41866 6.4149C6.06944 7.07011 6.72022 7.72089 7.37543 8.37167C7.4197 8.41594 7.4684 8.45136 7.52595 8.50006C7.4684 8.56204 7.42855 8.60631 7.38871 8.64615C6.7335 9.30136 6.07387 9.95657 5.42309 10.6162C5.06449 10.9748 5.1309 11.5193 5.55147 11.7584C5.8348 11.9178 6.17126 11.8646 6.42803 11.6079C7.08324 10.9571 7.73402 10.3063 8.3848 9.6511C8.42465 9.61125 8.46892 9.57141 8.52204 9.52271C8.57517 9.57141 8.61944 9.61125 8.65928 9.6511C9.31006 10.3019 9.96085 10.9571 10.6161 11.6079C10.8994 11.8868 11.289 11.9222 11.5767 11.7008C11.9176 11.4396 11.9486 10.9571 11.6387 10.6383C11.3155 10.3063 10.9835 9.9787 10.6559 9.6511C10.3194 9.31464 9.98298 8.97818 9.65095 8.64172C9.61111 8.60188 9.57569 8.56204 9.53142 8.51334C9.57569 8.46464 9.61553 8.42037 9.6598 8.3761C10.3062 7.72974 10.9569 7.07896 11.6033 6.43261C11.7627 6.27323 11.8645 6.0873 11.8512 5.85709C11.8335 5.5649 11.6918 5.3524 11.4262 5.2373C11.1473 5.12219 10.8817 5.17089 10.6603 5.37896C10.4478 5.57818 10.2442 5.79068 10.0361 5.99875C9.58012 6.45474 9.12413 6.91073 8.66371 7.37115C8.61501 7.41542 8.57074 7.45969 8.51319 7.51282Z" fill="white"/>
</g>
<defs>
<clipPath id="clip0_1216_2185">
<rect width="17" height="17" fill="white" transform="matrix(1 0 0 -1 0 17)"/>
</clipPath>
</defs>
</svg>
