<svg width="14" height="14" viewBox="0 0 14 14" fill="none" xmlns="http://www.w3.org/2000/svg">
<path d="M11.6667 12.25C11.6667 11.4359 11.6667 11.0289 11.5662 10.6977C11.34 9.95193 10.7564 9.36835 10.0107 9.14214C9.67949 9.04166 9.27245 9.04166 8.45837 9.04166H5.54171C4.72763 9.04166 4.32059 9.04166 3.98937 9.14214C3.24364 9.36835 2.66006 9.95193 2.43385 10.6977C2.33337 11.0289 2.33337 11.4359 2.33337 12.25M9.62504 4.375C9.62504 5.82475 8.44979 7 7.00004 7C5.55029 7 4.37504 5.82475 4.37504 4.375C4.37504 2.92525 5.55029 1.75 7.00004 1.75C8.44979 1.75 9.62504 2.92525 9.62504 4.375Z" stroke="#425466" stroke-width="1.5" stroke-linecap="round" stroke-linejoin="round"/>
</svg>
