<svg width="16" height="18" viewBox="0 0 16 18" fill="none" xmlns="http://www.w3.org/2000/svg">
<path d="M8.00001 11.5C5.35828 11.5 3.00901 12.7755 1.51334 14.755C1.19143 15.181 1.03047 15.394 1.03574 15.6819C1.03981 15.9043 1.17948 16.1849 1.35448 16.3222C1.581 16.5 1.8949 16.5 2.5227 16.5H13.4773C14.1051 16.5 14.419 16.5 14.6455 16.3222C14.8205 16.1849 14.9602 15.9043 14.9643 15.6819C14.9695 15.394 14.8086 15.181 14.4867 14.755C12.991 12.7755 10.6417 11.5 8.00001 11.5Z" stroke="white" stroke-width="1.5" stroke-linecap="round" stroke-linejoin="round"/>
<path d="M8.00001 9C10.0711 9 11.75 7.32107 11.75 5.25C11.75 3.17893 10.0711 1.5 8.00001 1.5C5.92894 1.5 4.25001 3.17893 4.25001 5.25C4.25001 7.32107 5.92894 9 8.00001 9Z" stroke="white" stroke-width="1.5" stroke-linecap="round" stroke-linejoin="round"/>
</svg>
