<svg width="56" height="56" viewBox="0 0 56 56" fill="none" xmlns="http://www.w3.org/2000/svg">
<circle cx="28" cy="28" r="27" fill="#FFF3DF" stroke="#F59E0B" stroke-width="2"/>
<path d="M28.8296 32.2372C28.8016 32.4218 28.7095 32.5993 28.5529 32.7696C28.3976 32.9396 28.213 33.025 28 33.025C27.5035 33.025 27.2272 32.7621 27.1707 32.2372L25.5115 19.4881C25.483 19.262 25.4688 18.9427 25.4688 18.5312C25.4688 17.8928 25.6881 17.3118 26.128 16.7865C26.5676 16.262 27.1917 16 28 16C28.8376 16 29.468 16.2692 29.8933 16.8075C30.3186 17.3328 30.5312 17.9071 30.5312 18.5312C30.5312 18.9143 30.5179 19.2332 30.4894 19.4882L28.8296 32.2372Z" fill="#F59E0B"/>
<path d="M26.1702 35.5968C26.6524 35.1146 27.2627 34.873 27.9999 34.873C28.7228 34.873 29.333 35.1221 29.8295 35.6182C30.3259 36.1146 30.5737 36.717 30.5737 37.4261C30.5737 38.1067 30.3259 38.7095 29.8295 39.2344C29.333 39.7451 28.7227 40 27.9999 40C27.2769 40 26.6675 39.7522 26.1702 39.2553C25.6745 38.7597 25.4259 38.1494 25.4259 37.4261C25.4259 36.7027 25.6745 36.0933 26.1702 35.5968Z" fill="#F59E0B"/>
</svg>
