<svg width="236" height="244" viewBox="0 0 236 244" fill="none" xmlns="http://www.w3.org/2000/svg">
<g clip-path="url(#clip0_807_7714)">
<path d="M202.647 80.2834C217.182 67.9711 218.982 46.2105 206.665 31.6796C194.349 17.1487 172.582 15.3501 158.046 27.6623C143.511 39.9745 141.711 61.7352 154.028 76.2661C166.344 90.797 188.111 92.5956 202.647 80.2834Z" fill="#8A4ADD"/>
<path d="M193.865 66.1288C175.745 66.1288 160.899 51.288 160.899 33.1735C160.899 15.059 175.745 0.218262 193.865 0.218262C211.985 0.218262 226.831 15.059 226.831 33.1735C226.831 51.5063 211.985 66.1288 193.865 66.1288ZM193.865 6.98391C179.238 6.98391 167.449 18.7692 167.449 33.3918C167.449 48.0143 179.238 59.7997 193.865 59.7997C208.492 59.7997 220.281 48.0143 220.281 33.3918C220.281 18.7692 208.492 6.98391 193.865 6.98391Z" fill="white"/>
<path d="M127.725 243.805H236.01V135.554H127.725L127.725 243.805Z" fill="#9320C8"/>
<path d="M0.01548 173.792H76.6445L76.6445 97.1869L0.01548 97.1869L0.01548 173.792Z" fill="#8A4ADD"/>
<path d="M15.2974 45.9517L61.3622 45.9517L61.3622 -0.0984306L15.2974 -0.0984306L15.2974 45.9517Z" fill="#6C20C8"/>
<path d="M57.9735 243.891H104.038V197.841H57.9735L57.9735 243.891Z" fill="#162240"/>
</g>
<defs>
<clipPath id="clip0_807_7714">
<rect width="236" height="244" fill="white"/>
</clipPath>
</defs>
</svg>
