<svg width="233" height="467" viewBox="0 0 233 467" fill="none" xmlns="http://www.w3.org/2000/svg">
<g clip-path="url(#clip0_820_7804)">
<path d="M233.937 467C104.829 467 -6.09501e-06 362.179 5.15443e-06 233.5C1.64203e-05 104.634 105.018 -1.12705e-05 233.937 0L233.937 56.3556C136.071 56.3556 56.4611 135.817 56.4611 233.5C56.4611 331.183 136.071 410.644 233.937 410.644L233.937 467Z" fill="#162240"/>
<path d="M151.134 144.001C105.418 189.631 105.418 263.612 151.134 309.242C196.849 354.872 270.968 354.872 316.684 309.242C362.399 263.612 362.399 189.631 316.684 144.001C270.968 98.3713 196.849 98.3713 151.134 144.001Z" fill="#8A4ADD"/>
</g>
<defs>
<clipPath id="clip0_820_7804">
<rect width="234" height="467" fill="white" transform="translate(234 467) rotate(-180)"/>
</clipPath>
</defs>
</svg>
