<svg width="274" height="284" viewBox="0 0 274 284" fill="none" xmlns="http://www.w3.org/2000/svg">
<g clip-path="url(#clip0_807_7732)">
<path d="M93.691 248.602C108.877 232.485 108.151 207.082 92.069 191.862C75.987 176.643 50.6392 177.37 35.453 193.488C20.2668 209.605 20.993 235.008 37.075 250.228C53.1569 265.447 78.5048 264.72 93.691 248.602Z" fill="#8A4ADD"/>
<path d="M48.9195 206.776C69.9574 206.776 87.1933 224.05 87.1933 245.134C87.1933 266.218 69.9574 283.492 48.9195 283.492C27.8816 283.492 10.6457 266.218 10.6457 245.134C10.6457 224.05 27.8816 206.776 48.9195 206.776ZM48.9195 275.871C65.9019 275.871 79.5893 262.154 79.5893 245.134C79.5893 228.114 65.9019 214.397 48.9195 214.397C31.9371 214.397 18.2498 228.114 18.2498 245.134C18.2498 262.154 32.1906 275.871 48.9195 275.871Z" fill="white"/>
<path d="M125.721 0H0V125.996H125.721V0Z" fill="#9320C8"/>
<path d="M274 81.542H185.032V170.705H274V81.542Z" fill="#8A4ADD"/>
<path d="M256.511 230.401H203.029V284H256.511V230.401Z" fill="#6C20C8"/>
<path d="M206.831 0H153.349V53.5993H206.831V0Z" fill="#162240"/>
</g>
<defs>
<clipPath id="clip0_807_7732">
<rect width="274" height="284" fill="white"/>
</clipPath>
</defs>
</svg>
