<svg width="159" height="45" viewBox="0 0 159 45" fill="none" xmlns="http://www.w3.org/2000/svg">
<path d="M118.784 10.6404C121.525 10.6404 123.747 8.41849 123.747 5.67762C123.747 2.93675 121.525 0.714844 118.784 0.714844C116.043 0.714844 113.822 2.93675 113.822 5.67762C113.822 8.41849 116.043 10.6404 118.784 10.6404Z" fill="#9320C8"/>
<path d="M99.9601 10.6404C102.701 10.6404 104.923 8.41849 104.923 5.67762C104.923 2.93675 102.701 0.714844 99.9601 0.714844C97.2192 0.714844 94.9973 2.93675 94.9973 5.67762C94.9973 8.41849 97.2192 10.6404 99.9601 10.6404Z" fill="#9320C8"/>
<path d="M81.1357 10.8115C78.3977 10.8115 76.173 8.58683 76.173 5.84875C76.173 3.11067 78.2265 0.714844 81.1357 0.714844C83.8738 0.714844 86.0985 2.93954 86.0985 5.67762C86.0985 8.4157 83.8738 10.8115 81.1357 10.8115Z" fill="#9320C8"/>
<path d="M62.1404 10.8115C59.4023 10.8115 57.1776 8.58683 57.1776 5.84875C57.1776 3.11067 59.4023 0.714844 62.1404 0.714844C65.0496 0.714844 67.2743 2.93954 67.2743 5.67762C67.2743 8.4157 65.0496 10.8115 62.1404 10.8115Z" fill="#9320C8"/>
<path d="M43.316 10.6404C46.0569 10.6404 48.2788 8.41849 48.2788 5.67762C48.2788 2.93675 46.0569 0.714844 43.316 0.714844C40.5752 0.714844 38.3533 2.93675 38.3533 5.67762C38.3533 8.41849 40.5752 10.6404 43.316 10.6404Z" fill="#9320C8"/>
<path d="M29.2821 6.48464C29.719 3.77886 27.8797 1.23121 25.1739 0.794319C22.4681 0.357425 19.9205 2.19672 19.4836 4.90251C19.0467 7.60829 20.886 10.1559 23.5918 10.5928C26.2975 11.0297 28.8452 9.19042 29.2821 6.48464Z" fill="#9320C8"/>
<path d="M5.49622 10.6404C8.23709 10.6404 10.459 8.41849 10.459 5.67762C10.459 2.93675 8.23709 0.714844 5.49622 0.714844C2.75536 0.714844 0.533447 2.93675 0.533447 5.67762C0.533447 8.41849 2.75536 10.6404 5.49622 10.6404Z" fill="#9320C8"/>
<path d="M136.411 27.4109C139.152 27.4109 141.374 25.189 141.374 22.4481C141.374 19.7073 139.152 17.4854 136.411 17.4854C133.67 17.4854 131.448 19.7073 131.448 22.4481C131.448 25.189 133.67 27.4109 136.411 27.4109Z" fill="#9320C8"/>
<path d="M117.587 27.4109C114.848 27.4109 112.624 25.1862 112.624 22.4481C112.624 19.71 114.848 17.4854 117.587 17.4854C120.325 17.4854 122.549 19.71 122.549 22.4481C122.549 25.1862 120.325 27.4109 117.587 27.4109Z" fill="#9320C8"/>
<path d="M98.7622 27.4109C96.0241 27.4109 93.7994 25.1862 93.7994 22.4481C93.7994 19.71 96.0241 17.4854 98.7622 17.4854C101.5 17.4854 103.725 19.71 103.725 22.4481C103.725 25.1862 101.5 27.4109 98.7622 27.4109Z" fill="#9320C8"/>
<path d="M79.7668 27.4109C77.0288 27.4109 74.8041 25.1862 74.8041 22.4481C74.8041 19.71 77.0288 17.4854 79.7668 17.4854C82.5049 17.4854 84.7296 19.71 84.7296 22.4481C84.7296 25.1862 82.6761 27.4109 79.7668 27.4109Z" fill="#9320C8"/>
<path d="M60.9425 27.4109C63.6834 27.4109 65.9053 25.189 65.9053 22.4481C65.9053 19.7073 63.6834 17.4854 60.9425 17.4854C58.2016 17.4854 55.9797 19.7073 55.9797 22.4481C55.9797 25.189 58.2016 27.4109 60.9425 27.4109Z" fill="#9320C8"/>
<path d="M42.1182 27.4109C44.859 27.4109 47.081 25.189 47.081 22.4481C47.081 19.7073 44.859 17.4854 42.1182 17.4854C39.3773 17.4854 37.1554 19.7073 37.1554 22.4481C37.1554 25.189 39.3773 27.4109 42.1182 27.4109Z" fill="#9320C8"/>
<path d="M23.1227 27.4109C25.8636 27.4109 28.0855 25.189 28.0855 22.4481C28.0855 19.7073 25.8636 17.4854 23.1227 17.4854C20.3818 17.4854 18.1599 19.7073 18.1599 22.4481C18.1599 25.189 20.3818 27.4109 23.1227 27.4109Z" fill="#9320C8"/>
<path d="M154.037 44.1824C151.299 44.1824 149.074 41.9577 149.074 39.2196C149.074 36.4815 151.299 34.2568 154.037 34.2568C156.775 34.2568 159 36.4815 159 39.2196C159 41.9577 156.946 44.1824 154.037 44.1824Z" fill="#9320C8"/>
<path d="M135.213 44.1824C132.475 44.1824 130.25 41.9577 130.25 39.2196C130.25 36.4815 132.475 34.2568 135.213 34.2568C137.951 34.2568 140.176 36.4815 140.176 39.2196C140.176 41.9577 137.951 44.1824 135.213 44.1824Z" fill="#9320C8"/>
<path d="M116.388 44.1824C113.65 44.1824 111.426 41.9577 111.426 39.2196C111.426 36.4815 113.65 34.2568 116.388 34.2568C119.127 34.2568 121.351 36.4815 121.351 39.2196C121.351 41.9577 119.127 44.1824 116.388 44.1824Z" fill="#9320C8"/>
<path d="M97.3931 44.0105C100.134 44.0105 102.356 41.7886 102.356 39.0477C102.356 36.3069 100.134 34.085 97.3931 34.085C94.6522 34.085 92.4303 36.3069 92.4303 39.0477C92.4303 41.7886 94.6522 44.0105 97.3931 44.0105Z" fill="#9320C8"/>
<path d="M78.5687 44.0105C81.3096 44.0105 83.5315 41.7886 83.5315 39.0477C83.5315 36.3069 81.3096 34.085 78.5687 34.085C75.8279 34.085 73.606 36.3069 73.606 39.0477C73.606 41.7886 75.8279 44.0105 78.5687 44.0105Z" fill="#9320C8"/>
<path d="M59.7445 44.0105C62.4854 44.0105 64.7073 41.7886 64.7073 39.0477C64.7073 36.3069 62.4854 34.085 59.7445 34.085C57.0036 34.085 54.7817 36.3069 54.7817 39.0477C54.7817 41.7886 57.0036 44.0105 59.7445 44.0105Z" fill="#9320C8"/>
<path d="M40.749 44.0105C43.4899 44.0105 45.7118 41.7886 45.7118 39.0477C45.7118 36.3069 43.4899 34.085 40.749 34.085C38.0082 34.085 35.7863 36.3069 35.7863 39.0477C35.7863 41.7886 38.0082 44.0105 40.749 44.0105Z" fill="#9320C8"/>
</svg>
