<svg width="276" height="138" viewBox="0 0 276 138" fill="none" xmlns="http://www.w3.org/2000/svg">
<g clip-path="url(#clip0_807_7742)">
<path d="M138 39.8752C115.977 39.8752 98.1246 22.0225 98.1246 -0.000137329C98.1246 -22.0228 115.977 -39.8755 138 -39.8755C160.023 -39.8755 177.875 -22.0228 177.875 -0.000137329C177.875 22.0225 160.023 39.8752 138 39.8752ZM138 -35.9661C118.193 -35.9661 102.034 -19.8075 102.034 -0.000137329C102.034 19.8072 118.193 35.9659 138 35.9659C157.807 35.9659 173.966 19.8072 173.966 -0.000137329C173.966 -19.8075 157.807 -35.9661 138 -35.9661Z" fill="#141D34"/>
<path d="M138 76.6234C95.779 76.6234 61.3768 42.2212 61.3768 0.000190735C61.3768 -42.2208 95.779 -76.623 138 -76.623C180.221 -76.623 214.623 -42.2208 214.623 0.000190735C214.623 42.2212 180.221 76.6234 138 76.6234ZM138 -72.7137C97.864 -72.7137 65.2861 -40.1358 65.2861 0.000190735C65.2861 40.1362 97.864 72.7141 138 72.7141C178.136 72.7141 210.714 40.1362 210.714 0.000190735C210.714 -40.0055 178.136 -72.7137 138 -72.7137Z" fill="#141D34"/>
<path d="M138 107.638C78.7082 107.638 30.3626 59.292 30.3626 0.000190735C30.3626 -59.2916 78.7082 -107.637 138 -107.637C197.292 -107.637 245.637 -59.2916 245.637 0.000190735C245.637 59.4223 197.422 107.638 138 107.638ZM138 -103.728C80.7932 -103.728 34.272 -57.2066 34.272 0.000190735C34.272 57.207 80.7932 103.728 138 103.728C195.207 103.728 241.728 57.207 241.728 0.000190735C241.728 -57.2066 195.207 -103.728 138 -103.728Z" fill="#141D34"/>
<path d="M138 138C61.898 138 0 76.102 0 0C0 -76.102 61.898 -138 138 -138C214.102 -138 276 -76.102 276 0C276 76.102 214.102 138 138 138ZM138 -134.091C64.1133 -134.091 3.90935 -73.8867 3.90935 0C3.90935 74.017 64.1133 134.091 138 134.091C212.017 134.091 272.091 73.8867 272.091 0C272.091 -73.8867 212.017 -134.091 138 -134.091Z" fill="#141D34"/>
</g>
<defs>
<clipPath id="clip0_807_7742">
<rect width="276" height="276" fill="white" transform="translate(0 -138)"/>
</clipPath>
</defs>
</svg>
