<svg width="43" height="44" viewBox="0 0 43 44" fill="none" xmlns="http://www.w3.org/2000/svg">
<path d="M13.4002 38.4273C13.035 37.7234 12.7894 36.9908 12.6396 36.2228C12.5191 35.6047 12.4668 34.9814 12.5008 34.3551C12.55 33.4478 12.7545 32.573 13.1102 31.7344C13.4064 31.0358 13.7911 30.3888 14.261 29.797C14.6411 29.3183 15.0627 28.8772 15.5325 28.4797C16.2622 27.8623 17.0575 27.3506 17.9001 26.9054C18.5669 26.5531 19.2524 26.2417 19.9657 26.002C21.3081 25.5511 22.6635 25.1387 24.0033 24.6803C24.7672 24.4189 25.5188 24.1165 26.2614 23.7986C26.9496 23.504 27.6288 23.1841 28.2933 22.8392C29.0629 22.4399 29.8175 22.0097 30.5188 21.495C30.6616 21.3902 30.7892 21.2648 30.9269 21.1528C31.0051 21.0892 31.0352 21.0149 31.0288 20.9133C31.0238 20.8345 31.0441 20.7541 31.054 20.6671C30.5171 20.8247 29.9899 20.981 29.4617 21.1339C28.627 21.3756 27.7937 21.6225 26.9559 21.853C26.3194 22.0282 25.68 22.195 25.0363 22.3405C24.3501 22.4957 23.6573 22.6217 22.9673 22.7599C22.4918 22.8552 22.0171 22.9551 21.5403 23.0432C21.0207 23.1392 20.4986 23.2214 19.9784 23.3144C19.5148 23.3972 19.0525 23.4866 18.5896 23.5733C17.804 23.7204 17.0165 23.8585 16.2333 24.0176C15.4312 24.1805 14.6499 24.4135 13.8904 24.7265C13.1149 25.0462 12.3796 25.4364 11.6915 25.912C11.3346 26.1587 10.9963 26.4346 10.6637 26.7141C9.94623 27.317 9.39214 28.054 8.94588 28.8744C8.54692 29.6079 8.2866 30.3886 8.12097 31.2079C7.97321 31.9388 7.95603 32.6753 7.98813 33.4115C8.01937 34.1277 8.15433 34.8349 8.36906 35.5193C8.56119 36.1316 8.79523 36.7308 9.00662 37.3372C9.02362 37.3859 9.0291 37.4789 9.00423 37.4946C8.93077 37.541 8.82313 37.6029 8.75838 37.5788C8.61983 37.5275 8.48716 37.4405 8.37446 37.3424C7.92651 36.9522 7.52361 36.5188 7.14284 36.0615C6.57088 35.3746 6.09536 34.6279 5.70313 33.8274C5.32233 33.0502 5.04139 32.2352 4.87097 31.3873C4.79016 30.9853 4.75225 30.5727 4.72212 30.1628C4.69305 29.7674 4.66751 29.3671 4.69606 28.973C4.7576 28.1233 4.93188 27.294 5.24318 26.4966C5.5086 25.8167 5.87021 25.1925 6.29794 24.6031C6.63733 24.1354 7.02526 23.7078 7.46113 23.337C7.92869 22.9392 8.43192 22.579 8.94403 22.2393C9.56096 21.8301 10.2283 21.5071 10.9165 21.2341C11.4775 21.0116 12.041 20.7926 12.6132 20.6019C13.5155 20.3012 14.4372 20.0698 15.3733 19.8975C15.9908 19.7839 16.6061 19.6577 17.2252 19.5538C17.6674 19.4795 18.1145 19.4348 18.5589 19.3733C19.0313 19.3079 19.5026 19.2339 19.9754 19.1717C20.4633 19.1076 20.9536 19.0613 21.4407 18.9924C21.9878 18.9149 22.5333 18.8255 23.078 18.7329C23.8569 18.6004 24.6384 18.4791 25.4115 18.3179C26.1504 18.1639 26.8835 17.9783 27.6125 17.7816C28.1624 17.6333 28.7097 17.4672 29.2439 17.2701C29.9484 17.0102 30.6449 16.7261 31.3339 16.4272C32.352 15.9856 33.3156 15.4411 34.218 14.7935C34.6017 14.5181 34.9792 14.2314 35.3385 13.925C35.7346 13.5872 36.126 13.2396 36.4837 12.8622C36.8723 12.4521 37.2152 11.9989 37.587 11.5724C37.7851 11.3452 37.9861 11.1154 38.2155 10.922C38.4291 10.742 38.6698 10.8026 38.8277 11.0475C38.9929 11.3036 39.156 11.5633 39.2933 11.8349C39.711 12.6609 40.0907 13.5049 40.3769 14.3864C40.6015 15.0781 40.8259 15.7715 41.0057 16.4757C41.1515 17.0467 41.2449 17.6326 41.3355 18.2159C41.414 18.7215 41.4546 19.2331 41.5146 19.7417C41.6132 20.5775 41.5776 21.4169 41.5648 22.2541C41.5571 22.7608 41.4811 23.267 41.426 23.7723C41.2999 24.9297 41.049 26.0606 40.7102 27.1741C40.4769 27.9406 40.2041 28.6913 39.8797 29.4234C39.4495 30.3942 38.9733 31.3415 38.3739 32.2196C37.9464 32.8458 37.506 33.464 37.047 34.0673C36.7538 34.4526 36.4241 34.8114 36.0962 35.1687C35.7654 35.5292 35.43 35.8875 35.0727 36.2211C34.4526 36.7999 33.8233 37.371 33.1156 37.8442C32.4899 38.2626 31.8739 38.6993 31.2238 39.0764C30.5771 39.4515 29.9055 39.7901 29.2221 40.0935C28.5452 40.3939 27.8505 40.6636 27.1445 40.8857C26.4391 41.1075 25.7129 41.2662 24.9903 41.4283C24.5357 41.5303 24.0726 41.5993 23.6104 41.6612C23.2496 41.7095 22.8847 41.7352 22.5208 41.7511C21.8743 41.7793 21.227 41.8095 20.5802 41.8064C20.0613 41.8039 19.5407 41.7722 19.0243 41.7192C18.3599 41.6511 17.6968 41.5622 17.037 41.4578C16.2915 41.3398 15.6064 41.0598 15.0155 40.5813C14.5415 40.1974 14.1446 39.7419 13.8373 39.2124C13.6887 38.9564 13.5472 38.6963 13.4002 38.4273Z" fill="#715BA4"/>
<path d="M27.4891 10.9329C28.1446 10.7755 28.7719 10.5694 29.3779 10.303C29.8711 10.0863 30.3615 9.86256 30.8459 9.62689C31.2726 9.41927 31.6591 9.15079 32.0154 8.832C32.5905 8.31732 32.9826 7.6913 33.2123 6.96034C33.2919 6.70684 33.3376 6.44261 33.4177 6.18929C33.4644 6.04185 33.5292 5.89212 33.62 5.76852C33.7833 5.54617 33.9889 5.51682 34.2455 5.64033C34.664 5.84184 34.9692 6.17393 35.2159 6.55725C35.4483 6.91836 35.5841 7.31617 35.6308 7.74808C35.7316 8.68146 35.4304 9.48507 34.8804 10.2199C34.4785 10.7568 33.9467 11.141 33.3912 11.489C32.8139 11.8505 32.2273 12.2036 31.6172 12.5041C31.0039 12.8061 30.3666 13.0677 29.7213 13.2943C29.0051 13.5457 28.2737 13.7591 27.5385 13.949C26.8352 14.1307 26.1206 14.2711 25.4072 14.4107C24.8326 14.5232 24.2536 14.614 23.6746 14.7019C23.2168 14.7713 22.7561 14.821 22.2968 14.881C21.8614 14.9378 21.4267 14.9998 20.9909 15.0534C20.6302 15.0977 20.2679 15.1296 19.9071 15.1734C19.4616 15.2276 19.0172 15.2896 18.572 15.3459C18.1691 15.3968 17.7647 15.4362 17.3631 15.4957C16.8403 15.5731 16.3189 15.6607 15.7984 15.7524C15.2127 15.8557 14.6262 15.9565 14.0448 16.0806C13.5201 16.1926 12.9988 16.3237 12.4812 16.4655C11.4348 16.7522 10.4117 17.1068 9.41665 17.5427C8.47467 17.9554 7.56994 18.4361 6.72853 19.0278C6.33425 19.305 5.9608 19.6132 5.58898 19.9208C5.34041 20.1264 5.09887 20.3437 4.87586 20.5767C4.20179 21.2807 3.60959 22.0488 3.11749 22.8926C2.60079 23.7786 2.21471 24.7207 1.911 25.6982C1.84481 25.9113 1.81961 26.1436 1.61621 26.2872C1.60116 26.2978 1.58648 26.309 1.54998 26.3358C1.4373 26.1046 1.31625 25.8886 1.22405 25.6608C0.972728 25.04 0.809157 24.3945 0.725402 23.7297C0.682936 23.3926 0.634274 23.0555 0.612769 22.7168C0.580943 22.2156 0.547152 21.7125 0.557598 21.2111C0.569714 20.6297 0.613295 20.0476 0.671859 19.4687C0.729523 18.8987 0.798287 18.3275 0.907108 17.7656C1.04174 17.0704 1.1908 16.3746 1.39179 15.6964C1.63477 14.8765 1.9327 14.0726 2.21951 13.2663C2.31672 12.993 2.44905 12.7319 2.57114 12.4679C3.0854 11.356 3.6808 10.2897 4.39543 9.29441C4.71472 8.84971 5.0483 8.41278 5.40638 7.99923C5.78597 7.56083 6.18535 7.1363 6.60702 6.73862C7.11694 6.25773 7.64577 5.7945 8.19148 5.35482C8.73722 4.91512 9.29749 4.48905 9.88159 4.1028C10.473 3.71171 11.093 3.36128 11.7155 3.02064C12.729 2.46607 13.797 2.03504 14.8983 1.68784C15.7012 1.43473 16.5137 1.21843 17.3448 1.08029C17.8571 0.995125 18.3708 0.916638 18.8856 0.848036C19.2035 0.805673 19.5241 0.775635 19.8444 0.761037C20.4617 0.732901 21.0801 0.698789 21.6975 0.706737C22.2002 0.71321 22.7024 0.775341 23.2045 0.816497C24.0187 0.883228 24.82 1.03621 25.6099 1.23391C26.3228 1.41234 26.9801 1.71525 27.5448 2.21136C28.2047 2.791 28.5706 3.52445 28.7179 4.36953C28.8491 5.12266 28.6457 5.81096 28.2029 6.42815C27.9567 6.7714 27.6579 7.06364 27.3348 7.33648C26.851 7.74489 26.334 8.10574 25.7817 8.40765C25.2594 8.69312 24.7173 8.94491 24.1724 9.18506C23.7817 9.35721 23.3782 9.50709 22.9693 9.62945C22.0505 9.90437 21.1255 10.1586 20.2016 10.4163C19.4423 10.6281 18.6805 10.8311 17.9207 11.0412C17.0968 11.2689 16.2723 11.4946 15.4516 11.7334C15.1663 11.8164 14.8587 11.8529 14.6149 12.0446C14.4856 12.1462 14.3719 12.2679 14.2512 12.3805C14.2568 12.3997 14.2623 12.4189 14.2679 12.4381C14.434 12.4839 14.5979 12.5417 14.7667 12.5733C15.3141 12.6759 15.8388 12.5372 16.3682 12.4209C16.7536 12.3363 17.1465 12.2838 17.5375 12.2269C17.9154 12.1719 18.2948 12.127 18.6742 12.0827C18.8931 12.0571 19.1134 12.0437 19.3326 12.0206C19.6749 11.9846 20.0166 11.9426 20.3591 11.9079C20.6024 11.8833 20.847 11.8702 21.0904 11.8452C21.4184 11.8114 21.7455 11.7696 22.0734 11.7342C22.2925 11.7105 22.5124 11.6948 22.7315 11.6703C23.0352 11.6363 23.3384 11.5973 23.6419 11.5606C23.9028 11.5292 24.1642 11.5006 24.4247 11.4661C24.7179 11.4273 25.0111 11.3878 25.303 11.3405C25.7399 11.2696 26.1763 11.1949 26.6117 11.1154C26.9017 11.0624 27.1895 10.998 27.4891 10.9329Z" fill="#715BA4"/>
</svg>
